<?xml version="1.0" standalone="no"?>
<!DOCTYPE svg PUBLIC "-//W3C//DTD SVG 20010904//EN"
 "http://www.w3.org/TR/2001/REC-SVG-20010904/DTD/svg10.dtd">
<svg version="1.0" xmlns="http://www.w3.org/2000/svg"
 width="744.000000pt" height="744.000000pt" viewBox="0 0 744.000000 744.000000"
 preserveAspectRatio="xMidYMid meet">
<metadata>
Created by potrace 1.14, written by Peter Selinger 2001-2017
</metadata>
<g transform="translate(0.000000,744.000000) scale(0.100000,-0.100000)"
fill="#000000" stroke="none">
<path d="M0 3754 l0 -3084 562 2 563 3 0 1455 0 1455 1479 2 c814 1 1486 5
1493 7 7 3 12 9 12 13 -2 9 5 29 31 88 9 22 39 92 65 155 27 63 52 120 57 126
5 7 11 20 13 30 2 11 43 109 90 219 114 263 108 249 111 260 2 6 25 62 53 125
28 63 51 120 51 125 0 7 -502 10 -1490 9 l-1489 -1 -36 55 c-19 30 -35 58 -35
63 0 5 -4 9 -9 9 -5 0 -15 12 -23 28 -7 15 -36 60 -63 101 -28 40 -54 80 -60
89 -5 8 -62 95 -125 192 -63 97 -119 183 -125 192 -5 9 -32 48 -59 88 -27 39
-49 78 -50 87 -1 14 182 16 1979 17 l1980 1 20 40 c12 22 27 56 35 75 7 19 26
63 42 98 15 35 28 65 28 68 0 2 9 23 19 47 11 23 52 119 91 212 40 94 78 184
85 200 7 17 39 91 70 165 32 74 65 151 73 170 9 19 16 37 17 40 0 3 3 10 6 15
3 6 9 18 12 27 6 16 -159 17 -2734 17 l-2739 0 0 -3085z"/>
<path d="M5924 6823 c-4 -10 -15 -38 -26 -63 -11 -25 -21 -49 -22 -55 -2 -5
-10 -28 -19 -49 -10 -21 -24 -58 -32 -82 -8 -24 -19 -52 -24 -61 -15 -28 -46
-117 -43 -125 1 -5 -2 -8 -8 -8 -5 0 -10 -5 -10 -11 0 -12 -60 -169 -86 -226
-7 -17 -14 -38 -14 -46 0 -9 -4 -18 -9 -21 -5 -3 -12 -18 -16 -33 -3 -16 -13
-41 -20 -58 -8 -16 -32 -77 -55 -135 -22 -58 -45 -114 -50 -125 -5 -11 -20
-49 -34 -85 -13 -36 -30 -78 -37 -95 -7 -16 -13 -34 -15 -40 -2 -10 -98 -252
-114 -290 -5 -11 -34 -83 -64 -160 -30 -77 -80 -204 -110 -283 -31 -78 -56
-147 -56 -152 0 -6 -4 -10 -8 -10 -5 0 -9 -6 -9 -12 0 -12 -133 -356 -171
-443 -9 -21 -17 -42 -18 -45 0 -3 -8 -22 -17 -44 -9 -21 -17 -44 -17 -50 0 -7
-4 -16 -9 -22 -4 -5 -17 -34 -27 -64 -10 -30 -24 -64 -31 -75 -7 -11 -13 -25
-13 -31 0 -6 -8 -29 -17 -50 -9 -22 -18 -43 -19 -49 -1 -5 -10 -28 -20 -50
-10 -22 -18 -44 -20 -50 -1 -9 -52 -138 -75 -190 -22 -51 -111 -281 -113 -290
-1 -5 -4 -14 -8 -20 -3 -5 -23 -53 -43 -105 -20 -52 -42 -106 -47 -120 -6 -14
-12 -29 -14 -35 -1 -5 -58 -152 -127 -325 -69 -173 -141 -358 -162 -410 -48
-126 -59 -150 -65 -150 -5 0 -42 102 -55 150 -1 3 -4 12 -8 20 -3 8 -20 58
-38 110 -17 52 -74 219 -126 370 -52 151 -99 289 -104 305 -5 17 -13 39 -18
50 -5 11 -17 47 -26 80 -10 33 -21 65 -26 70 -4 6 -7 12 -7 15 1 3 -6 28 -16
56 l-17 51 -537 0 c-295 0 -540 -1 -544 -4 -4 -2 7 -40 24 -86 16 -45 33 -93
38 -107 7 -21 56 -160 166 -465 14 -38 32 -87 40 -107 7 -21 23 -66 34 -100
11 -35 25 -72 30 -83 9 -21 100 -273 105 -290 1 -5 5 -17 8 -25 8 -19 68 -185
111 -311 18 -52 39 -106 46 -120 7 -13 13 -26 12 -29 -2 -7 17 -68 34 -105 7
-16 19 -50 28 -75 15 -46 65 -188 156 -440 28 -80 57 -161 63 -180 6 -19 15
-41 20 -48 7 -9 138 -12 596 -12 l587 0 64 157 c34 87 71 177 81 200 11 23 19
44 19 47 0 3 11 29 23 58 13 29 39 89 57 133 18 44 42 100 53 125 10 25 20 50
21 55 1 6 4 15 8 20 3 6 24 57 47 115 23 58 51 124 62 147 10 24 19 45 19 47
0 2 8 21 17 42 9 22 17 41 18 44 1 6 59 148 80 195 32 72 76 185 74 187 -2 2
5 17 14 33 14 24 33 67 42 95 1 3 6 16 12 30 41 96 145 347 147 355 2 6 8 21
13 35 6 14 31 75 56 135 25 61 66 158 90 218 25 59 43 107 39 107 -4 0 -2 4 3
8 6 4 21 34 34 67 13 33 29 74 36 90 7 17 29 71 50 120 20 50 41 99 45 110 5
11 27 65 50 120 22 55 47 114 55 130 12 26 14 -194 14 -1597 l1 -1628 724 0
724 0 3 22 c2 13 4 1400 4 3083 l-1 3060 -727 3 c-686 2 -728 1 -733 -15z"/>
</g>
</svg>
