<svg width="196" height="137" viewBox="0 0 196 137" fill="none" xmlns="http://www.w3.org/2000/svg">
<path d="M171.532 49.6025H177.374V94.251H171.532V49.6025Z" fill="#7B6A58"/>
<path d="M109.255 49.6025H115.096V94.251H109.255V49.6025Z" fill="#7B6A58"/>
<path d="M50.2281 80.7224L71.5006 49.6025H26.7284L25.1789 55.5124L59.9079 55.5119L40.1824 84.4211C52.3708 85.1352 62.0367 95.2807 62.0367 107.697C62.0367 120.576 51.6373 131.016 38.8092 131.016C29.4281 131.016 21.3519 125.43 17.6855 117.392L13.8888 122.957C19.0161 131.378 28.258 137 38.8092 137C54.9292 137 67.9968 123.88 67.9968 107.697C67.9968 95.5815 60.6729 85.1847 50.2281 80.7224Z" fill="#7B6A58"/>
<path d="M54.0927 103.001H0V108.866H54.0927V103.001Z" fill="#F39200"/>
<path d="M97.7847 0L65.9558 46.6481H73.49L101.552 5.52108L97.7847 0Z" fill="#006633"/>
<path d="M99.8286 13.4123L122.506 46.6476H129.613L103.37 8.18555L99.8286 13.4123Z" fill="#006633"/>
<path d="M156.252 49.6025H162.094V94.251H156.252V49.6025Z" fill="#7B6A58"/>
<path d="M124.522 49.6025H130.363V94.251H124.522V49.6025Z" fill="#7B6A58"/>
<path d="M162.094 94.251L131.629 49.6025H124.522L154.986 94.251H162.094Z" fill="#7B6A58"/>
<path d="M157.022 97.2354L158.92 100.017H166.028L164.13 97.2354H157.022Z" fill="#006633"/>
<path d="M98.1958 54.7771C97.1152 52.8354 95.5333 51.4877 93.4496 50.7337C91.3659 49.9795 88.6616 49.6025 85.3361 49.6025H77.2872V94.2513H83.084V76.2391H85.7569C88.3387 76.2391 90.4717 76.0743 92.1555 75.7442C93.8393 75.4143 95.253 74.7878 96.3969 73.8636C97.5403 72.94 98.3964 71.6039 98.9645 69.8556C99.5328 68.1072 99.8171 65.7955 99.8171 62.9208C99.8166 59.4333 99.2761 56.7188 98.1958 54.7771ZM92.3323 68.6961C91.7626 69.9827 90.8697 70.8475 89.6534 71.2905C88.4371 71.7337 86.7115 71.9551 84.4757 71.9551H83.0837V54.1125H84.6444C86.7957 54.1125 88.4795 54.3718 89.6955 54.8902C90.9119 55.4085 91.7977 56.3017 92.3535 57.5694C92.9089 58.8371 93.1868 60.621 93.1868 62.9208C93.1868 65.4845 92.9019 67.4095 92.3323 68.6961Z" fill="#7B6A58"/>
<path d="M175.714 114.212L174.082 111.82H166.974L172.608 120.077H196V114.212H175.714Z" fill="#006633"/>
<path d="M157.166 103.001H73.6433V108.866H161.167L157.166 103.001Z" fill="#F39200"/>
<path d="M171.862 103.001L175.874 108.866H196V103.001H171.862Z" fill="#F39200"/>
<path d="M170.122 116.434L158.473 99.3608L165.079 98.626L174.959 113.069L170.122 116.434Z" fill="#006633"/>
</svg>
