<svg width="172" height="67" viewBox="0 0 172 67" fill="none" xmlns="http://www.w3.org/2000/svg">
<path d="M11.5084 43.138L14.1876 51.0591L22.5489 50.9589L15.8433 55.9547L18.5224 63.8758L11.6991 59.0422L4.99346 64.038L7.48196 56.0549L0.65857 51.2213L9.01994 51.1211L11.5084 43.138Z" fill="#020202"/>
<path d="M159.508 43.138L162.188 51.0591L170.549 50.9589L163.843 55.9547L166.522 63.8758L159.699 59.0422L152.993 64.038L155.482 56.0549L148.659 51.2213L157.02 51.1211L159.508 43.138Z" fill="#020202"/>
<path d="M125.783 14.5403L132.922 18.8944L139.269 13.4503L137.334 21.5853L144.473 25.9394L136.138 26.6131L134.203 34.7481L130.987 27.0294L122.652 27.7031L128.999 22.259L125.783 14.5403Z" fill="#020202"/>
<path d="M44.7221 14.4931L37.5831 18.8471L31.2361 13.4031L33.171 21.5381L26.0321 25.8922L34.3668 26.5658L36.3017 34.7009L39.518 26.9822L47.8528 27.6558L41.5058 22.2118L44.7221 14.4931Z" fill="#020202"/>
<path d="M85.5075 0.199471L88.229 8.1062L96.5897 7.96129L89.9109 12.9928L92.6323 20.8996L85.7832 16.1025L79.1044 21.134L81.5502 13.1377L74.701 8.34068L83.0618 8.19576L85.5075 0.199471Z" fill="#020202"/>
<path d="M150 66C150 60.3532 148.332 54.7616 145.09 49.5446C141.849 44.3276 137.098 39.5873 131.108 35.5944C125.119 31.6015 118.009 28.4341 110.183 26.2732C102.358 24.1122 93.9703 23 85.5 23C77.0297 23 68.6424 24.1122 60.8169 26.2732C52.9914 28.4341 45.881 31.6015 39.8916 35.5944C33.9022 39.5873 29.1512 44.3276 25.9098 49.5446C22.6683 54.7616 21 60.3532 21 66L85.5 66H150Z" fill="black"/>
<path fill-rule="evenodd" clip-rule="evenodd" d="M48 40.402C52.0944 48.0222 54.4312 56.7273 54.4678 65.975H61.9999L48.7905 40L48 40.402Z" fill="white"/>
<circle cx="48" cy="40" r="3" fill="white"/>
<circle cx="86" cy="28" r="3" fill="white"/>
<path fill-rule="evenodd" clip-rule="evenodd" d="M124 40.402C119.906 48.0222 117.569 56.7273 117.532 65.975H110L123.209 40L124 40.402Z" fill="white"/>
<circle cx="124" cy="40" r="3" fill="white"/>
<path d="M86 66V54" stroke="white" stroke-width="2"/>
<ellipse cx="86" cy="52" rx="3" ry="4" fill="white"/>
<path fill-rule="evenodd" clip-rule="evenodd" d="M86.7975 25.6041C79.4813 34.3969 68.8262 40.0674 56.8311 40.3944C53.9334 40.4733 51.0968 40.2367 48.3511 39.7141L76 53.9999L86.7975 25.6041Z" fill="white"/>
<path fill-rule="evenodd" clip-rule="evenodd" d="M85.7652 26.0001C93.0814 34.7929 103.737 40.4634 115.732 40.7903C118.629 40.8693 121.466 40.6327 124.212 40.1101L96.5628 54.3959L85.7652 26.0001Z" fill="white"/>
</svg>
