<svg width="70" height="70" viewBox="0 0 70 70" fill="none" xmlns="http://www.w3.org/2000/svg">
<rect width="70" height="70" rx="35" fill="#90D5D3" fill-opacity="0.321569"/>
<g clip-path="url(#clip0_313_34)">
<path fill-rule="evenodd" clip-rule="evenodd" d="M54.8877 20.6479C55.4736 21.234 55.8027 22.0287 55.8027 22.8573C55.8027 23.6859 55.4736 24.4807 54.8877 25.0667L31.4648 48.4896C31.1553 48.7992 30.7878 49.0448 30.3833 49.2124C29.9788 49.3799 29.5453 49.4662 29.1075 49.4662C28.6697 49.4662 28.2362 49.3799 27.8317 49.2124C27.4273 49.0448 27.0598 48.7992 26.7502 48.4896L15.1127 36.8542C14.8142 36.5659 14.5762 36.2211 14.4124 35.8398C14.2486 35.4586 14.1624 35.0485 14.1588 34.6336C14.1552 34.2186 14.2343 33.8071 14.3914 33.4231C14.5485 33.039 14.7806 32.6901 15.074 32.3967C15.3674 32.1033 15.7163 31.8712 16.1004 31.7141C16.4844 31.557 16.8959 31.4779 17.3108 31.4815C17.7258 31.4851 18.1358 31.5713 18.5171 31.7351C18.8984 31.8989 19.2432 32.137 19.5315 32.4354L29.1065 42.0104L50.4669 20.6479C50.7571 20.3575 51.1017 20.1272 51.481 19.97C51.8602 19.8128 52.2668 19.7319 52.6773 19.7319C53.0879 19.7319 53.4944 19.8128 53.8737 19.97C54.2529 20.1272 54.5975 20.3575 54.8877 20.6479Z" fill="#3799A6"/>
</g>
<defs>
<clipPath id="clip0_313_34">
<rect width="50" height="50" fill="white" transform="translate(10 10)"/>
</clipPath>
</defs>
</svg>
