<svg width="38" height="38" viewBox="0 0 38 38" fill="none" xmlns="http://www.w3.org/2000/svg">
<rect width="38" height="38" rx="19" fill="white"/>
<path d="M24 15V13H20V10H18V13H16C15.4697 13.0005 14.9613 13.2114 14.5864 13.5864C14.2114 13.9613 14.0005 14.4697 14 15V18C14.0005 18.5303 14.2114 19.0387 14.5864 19.4136C14.9613 19.7886 15.4697 19.9995 16 20H22V23H14V25H18V28H20V25H22C22.5303 24.9995 23.0387 24.7886 23.4136 24.4136C23.7886 24.0387 23.9995 23.5303 24 23V20C23.9995 19.4697 23.7886 18.9613 23.4136 18.5864C23.0387 18.2114 22.5303 18.0005 22 18H16V15H24Z" fill="#186CAB"/>
<path d="M19 7C21.3734 7 23.6935 7.70379 25.6668 9.02236C27.6402 10.3409 29.1783 12.2151 30.0866 14.4078C30.9948 16.6005 31.2325 19.0133 30.7694 21.3411C30.3064 23.6689 29.1635 25.8071 27.4853 27.4853C25.8071 29.1635 23.6689 30.3064 21.3411 30.7694C19.0133 31.2324 16.6005 30.9948 14.4078 30.0866C12.2151 29.1783 10.3409 27.6402 9.02237 25.6668C7.70379 23.6935 7.00001 21.3734 7.00001 19C7.00924 15.8202 8.27649 12.7734 10.5249 10.5249C12.7734 8.27648 15.8202 7.00923 19 7ZM19 5C16.2311 5 13.5243 5.82109 11.222 7.35943C8.91973 8.89777 7.12532 11.0843 6.06569 13.6424C5.00607 16.2006 4.72882 19.0155 5.26901 21.7313C5.80921 24.447 7.14258 26.9416 9.10051 28.8995C11.0584 30.8574 13.553 32.1908 16.2687 32.731C18.9845 33.2712 21.7994 32.9939 24.3576 31.9343C26.9157 30.8747 29.1022 29.0803 30.6406 26.778C32.1789 24.4757 33 21.7689 33 19C32.9892 15.2903 31.5107 11.7356 28.8876 9.11245C26.2644 6.48929 22.7097 5.01082 19 5Z" fill="#186CAB"/>
</svg>
