<svg width="50" height="50" viewBox="0 0 50 50" fill="none" xmlns="http://www.w3.org/2000/svg">
<path d="M40.6194 16.6436L25.0007 31.8686L9.38195 16.6436C9.10289 16.3711 8.72828 16.2185 8.3382 16.2185C7.94811 16.2185 7.5735 16.3711 7.29445 16.6436C7.15933 16.776 7.05198 16.934 6.9787 17.1084C6.90542 17.2828 6.86768 17.4701 6.86768 17.6592C6.86768 17.8484 6.90542 18.0357 6.9787 18.2101C7.05198 18.3845 7.15933 18.5425 7.29445 18.6749L23.9101 34.8749C24.2019 35.1593 24.5932 35.3185 25.0007 35.3185C25.4082 35.3185 25.7995 35.1593 26.0913 34.8749L42.7069 18.678C42.843 18.5455 42.9512 18.3871 43.025 18.2121C43.0989 18.0372 43.1369 17.8492 43.1369 17.6592C43.1369 17.4693 43.0989 17.2813 43.025 17.1064C42.9512 16.9314 42.843 16.773 42.7069 16.6405C42.4279 16.3679 42.0533 16.2153 41.6632 16.2153C41.2731 16.2153 40.8985 16.3679 40.6194 16.6405V16.6436Z" fill="#2E3838"/>
</svg>
