<svg width="50" height="50" viewBox="0 0 50 50" fill="none" xmlns="http://www.w3.org/2000/svg">
<path d="M40.619 16.6436L25.0002 31.8686L9.38146 16.6436C9.1024 16.3711 8.72779 16.2185 8.33771 16.2185C7.94762 16.2185 7.57301 16.3711 7.29396 16.6436C7.15884 16.776 7.0515 16.934 6.97821 17.1084C6.90493 17.2828 6.86719 17.4701 6.86719 17.6592C6.86719 17.8484 6.90493 18.0357 6.97821 18.2101C7.0515 18.3845 7.15884 18.5425 7.29396 18.6749L23.9096 34.8749C24.2014 35.1593 24.5927 35.3185 25.0002 35.3185C25.4077 35.3185 25.799 35.1593 26.0908 34.8749L42.7065 18.678C42.8425 18.5455 42.9507 18.3871 43.0245 18.2121C43.0984 18.0372 43.1364 17.8492 43.1364 17.6592C43.1364 17.4693 43.0984 17.2813 43.0245 17.1064C42.9507 16.9314 42.8425 16.773 42.7065 16.6405C42.4274 16.3679 42.0528 16.2153 41.6627 16.2153C41.2726 16.2153 40.898 16.3679 40.619 16.6405V16.6436Z" fill="#DADADA"/>
</svg>
