<svg width="266" height="287" viewBox="0 0 266 287" fill="none" xmlns="http://www.w3.org/2000/svg">
<g clip-path="url(#clip0_300_30)">
<path d="M238.479 39.9593C226.139 28.7888 205.498 17.2284 183.251 9.00654C174.982 5.9487 147.119 -3.61482 135.667 1.45556C132.063 3.06248 129.989 6.07351 129.989 9.72419V58.7431C97.7565 62.7994 70.1424 73.4706 47.864 90.4603C27.286 106.155 12.5117 126.515 5.10113 149.339C-6.24093 184.348 1.63767 219.529 25.6791 241.168L28.8773 244.054L68.0675 209.092L37.2239 242.868L37.2552 242.899L32.7308 247.502C44.5721 259.14 64.1984 270.373 86.5861 278.283C96.3056 281.715 105.698 284.211 113.748 285.491C117.695 286.115 121.205 286.427 124.263 286.427C128.101 286.427 131.221 285.927 133.577 284.945C137.399 283.338 139.599 280.28 139.599 276.551C139.599 273.571 139.677 268.033 139.755 261.621C139.989 243.648 140.129 230.684 139.786 227.595L130.223 228.64C130.519 231.386 130.285 249.514 130.129 261.496C130.051 267.596 129.989 272.916 129.973 276.036C127.492 277.284 115.589 277.94 92.4677 270.139C74.9944 264.257 58.8628 256.051 47.3179 247.346C66.9442 235.302 114.309 230.262 135.277 228.031C168.211 224.521 196.231 213.912 218.572 196.47C238.245 181.119 252.551 160.993 259.9 138.293C272.006 101.163 263.566 62.5498 238.479 39.9593ZM177.759 17.2284C198.306 24.5609 217.34 34.7641 229.524 44.9048L225.686 45.4197C209.009 47.6819 167.541 35.5753 147.977 20.1146C143.374 16.4795 140.504 12.9692 139.786 10.1142C142.719 8.89733 154.919 9.06893 177.759 17.2284ZM150.317 41.301L143.328 122.084L143.671 37.1042C146.541 39.5692 150.317 41.301 150.317 41.301ZM29.0489 231.058C10.3119 211.806 4.63309 182.07 14.2746 152.303C21.0611 131.351 34.6966 112.614 53.7144 98.1049C74.3548 82.3633 100.003 72.3941 130.004 68.4314V140.992L29.0489 231.058ZM250.82 135.345C244.049 156.219 230.881 174.738 212.722 188.919C191.816 205.223 165.434 215.176 134.31 218.499C108.412 221.261 81.0789 224.911 60.9065 231.245L138.304 146.469L234.158 49.1016C254.782 69.3987 261.335 102.879 250.82 135.345Z" fill="white"/>
</g>
<defs>
<clipPath id="clip0_300_30">
<rect width="265.354" height="286.427" fill="white"/>
</clipPath>
</defs>
</svg>
