<svg width="93" height="78" viewBox="0 0 93 78" fill="none" xmlns="http://www.w3.org/2000/svg">
<path d="M62.23 14.7098H12.46L17.19 21.8898L20.05 26.2298H57.31L51.17 40.6298H14.06V77.1198H0V0.0297852H68.48L62.23 14.7098Z" fill="#3799A6"/>
<path d="M92.2901 0H74.1201V77.12H92.2901V0Z" fill="#6BC0BC"/>
<path d="M74.1202 0L50.1302 60.93L44.6102 44.78H30.9902L42.5702 77.12H57.3102L81.8302 17.6L74.1202 0Z" fill="#6BC0BC"/>
<path d="M20.1201 26.23H57.3101L51.1701 40.63H29.8401L20.1201 26.23Z" fill="#33899A"/>
<path d="M62.23 14.7098H12.4601L17.19 21.8898L2.31006 0.0297852H68.48L62.23 14.7098Z" fill="#33899A"/>
<path d="M81.8301 17.6001L74.1201 77.1201V36.3101L81.8301 17.6001Z" fill="#33899A"/>
</svg>
