<svg width="50" height="50" viewBox="0 0 50 50" fill="none" xmlns="http://www.w3.org/2000/svg">
<path d="M41.6665 37.5002H37.4998V19.271L24.9998 27.0835L12.4998 19.271V37.5002H8.33317V12.5002H10.8332L24.9998 21.3543L39.1665 12.5002H41.6665M41.6665 8.3335H8.33317C6.02067 8.3335 4.1665 10.1877 4.1665 12.5002V37.5002C4.1665 38.6052 4.60549 39.665 5.38689 40.4464C6.16829 41.2278 7.2281 41.6668 8.33317 41.6668H41.6665C42.7716 41.6668 43.8314 41.2278 44.6128 40.4464C45.3942 39.665 45.8332 38.6052 45.8332 37.5002V12.5002C45.8332 11.3951 45.3942 10.3353 44.6128 9.55388C43.8314 8.77248 42.7716 8.3335 41.6665 8.3335Z" fill="#DDDDDD"/>
</svg>
