<svg width="50" height="50" viewBox="0 0 50 50" fill="none" xmlns="http://www.w3.org/2000/svg">
<path d="M16.2498 4.1665H33.7498C40.4165 4.1665 45.8332 9.58317 45.8332 16.2498V33.7498C45.8332 36.9545 44.5601 40.028 42.294 42.294C40.028 44.5601 36.9545 45.8332 33.7498 45.8332H16.2498C9.58317 45.8332 4.1665 40.4165 4.1665 33.7498V16.2498C4.1665 13.0451 5.43957 9.9717 7.70563 7.70563C9.9717 5.43957 13.0451 4.1665 16.2498 4.1665ZM15.8332 8.33317C13.844 8.33317 11.9364 9.12335 10.5299 10.5299C9.12335 11.9364 8.33317 13.844 8.33317 15.8332V34.1665C8.33317 38.3123 11.6873 41.6665 15.8332 41.6665H34.1665C36.1556 41.6665 38.0633 40.8763 39.4698 39.4698C40.8763 38.0633 41.6665 36.1556 41.6665 34.1665V15.8332C41.6665 11.6873 38.3123 8.33317 34.1665 8.33317H15.8332ZM35.9373 11.4582C36.628 11.4582 37.2904 11.7325 37.7788 12.2209C38.2671 12.7093 38.5415 13.3717 38.5415 14.0623C38.5415 14.753 38.2671 15.4154 37.7788 15.9038C37.2904 16.3921 36.628 16.6665 35.9373 16.6665C35.2467 16.6665 34.5843 16.3921 34.0959 15.9038C33.6075 15.4154 33.3332 14.753 33.3332 14.0623C33.3332 13.3717 33.6075 12.7093 34.0959 12.2209C34.5843 11.7325 35.2467 11.4582 35.9373 11.4582ZM24.9998 14.5832C27.7625 14.5832 30.412 15.6806 32.3655 17.6341C34.319 19.5876 35.4165 22.2372 35.4165 24.9998C35.4165 27.7625 34.319 30.412 32.3655 32.3655C30.412 34.319 27.7625 35.4165 24.9998 35.4165C22.2372 35.4165 19.5876 34.319 17.6341 32.3655C15.6806 30.412 14.5832 27.7625 14.5832 24.9998C14.5832 22.2372 15.6806 19.5876 17.6341 17.6341C19.5876 15.6806 22.2372 14.5832 24.9998 14.5832ZM24.9998 18.7498C23.3422 18.7498 21.7525 19.4083 20.5804 20.5804C19.4083 21.7525 18.7498 23.3422 18.7498 24.9998C18.7498 26.6574 19.4083 28.2472 20.5804 29.4193C21.7525 30.5914 23.3422 31.2498 24.9998 31.2498C26.6574 31.2498 28.2472 30.5914 29.4193 29.4193C30.5914 28.2472 31.2498 26.6574 31.2498 24.9998C31.2498 23.3422 30.5914 21.7525 29.4193 20.5804C28.2472 19.4083 26.6574 18.7498 24.9998 18.7498Z" fill="#DDDDDD"/>
</svg>
