<svg width="73" height="63" viewBox="0 0 73 63" fill="none" xmlns="http://www.w3.org/2000/svg">
<path d="M69.922 13.6397L70.849 12.7127C71.5864 11.9753 72.0007 10.9751 72.0007 9.93222C72.0007 8.88933 71.5864 7.88916 70.849 7.15172C70.1116 6.41429 69.1114 6 68.0685 6C67.0256 6 66.0254 6.41429 65.288 7.15172L64.361 8.07872L55.839 16.5987C55.262 17.1767 54.973 17.4657 54.725 17.7837C54.4321 18.159 54.181 18.5651 53.976 18.9947C53.803 19.3587 53.674 19.7467 53.416 20.5207L52.322 23.8017M69.922 13.6397C69.922 13.6397 67.953 13.5237 66.215 11.7857C64.477 10.0487 64.362 8.07872 64.362 8.07872M69.922 13.6397L61.401 22.1597C60.824 22.7367 60.535 23.0257 60.217 23.2737C59.8417 23.5666 59.4357 23.8178 59.006 24.0227C58.642 24.1957 58.255 24.3247 57.48 24.5827L54.199 25.6767M54.199 25.6767L53.397 25.9447C53.21 26.0074 53.0093 26.0167 52.8174 25.9716C52.6254 25.9264 52.4499 25.8287 52.3105 25.6893C52.171 25.5498 52.0733 25.3743 52.0281 25.1823C51.983 24.9904 51.9923 24.7897 52.055 24.6027L52.323 23.8007L54.199 25.6767Z" stroke="#70D343" stroke-width="1.5"/>
<path d="M49.2563 31L70.4753 41.2563L64.1092 54.4269L52.1707 58.585L39.0001 52.2189L49.2563 31ZM50.3526 34.1475L42.1476 51.1227L51.6961 55.738L55.2858 48.3114L62.7125 51.901L67.3278 42.3525L50.3526 34.1475ZM60.1867 53.2978L56.3821 51.4589L54.5431 55.2634L60.1867 53.2978ZM50.4233 39.4169L63.1546 45.5707L62.129 47.6926L49.3976 41.5388L50.4233 39.4169ZM48.372 43.6607L53.6767 46.2248L52.6511 48.3467L47.3464 45.7826L48.372 43.6607Z" fill="#70D343"/>
<path d="M0 14.1943L38.2869 0.000163048L47.0972 23.7648L37.9588 43.6709L14.1942 52.4812L0 14.1943ZM5.24811 16.6036L16.6034 47.2331L33.8325 40.8457L28.8646 27.4453L42.265 22.4774L35.8776 5.24827L5.24811 16.6036ZM40.9775 27.3096L34.1127 29.8546L36.6577 36.7194L40.9775 27.3096ZM11.9156 22.8416L34.8878 14.3251L36.3072 18.1538L13.335 26.6703L11.9156 22.8416ZM14.7545 30.4989L24.3262 26.9504L25.7456 30.7791L16.1739 34.3276L14.7545 30.4989Z" fill="#70D343"/>
</svg>
