<svg width="457" height="362" viewBox="0 0 457 362" fill="none" xmlns="http://www.w3.org/2000/svg">
<path d="M418.607 346.457C419.411 351.921 424.493 355.698 429.957 354.893C435.421 354.089 439.198 349.007 438.393 343.543L418.607 346.457ZM111.07 141.729L102.546 146.959L111.07 141.729ZM438.393 343.543C430.28 288.451 409 252.483 379.886 228.753C351.083 205.277 315.642 194.644 280.857 188.084C263.44 184.8 245.841 182.482 229.173 180.18C212.373 177.859 196.53 175.556 182.028 172.289C152.775 165.7 131.359 155.678 119.594 136.5L102.546 146.959C118.701 173.291 147.017 184.904 177.633 191.801C193.066 195.277 209.692 197.679 226.436 199.992C243.313 202.323 260.333 204.567 277.151 207.738C310.836 214.09 342.329 223.943 367.25 244.255C391.859 264.313 411.092 295.434 418.607 346.457L438.393 343.543ZM119.594 136.5C95.9032 97.8839 54.2595 67.3111 12.9627 44.8611C-28.5253 22.3071 -70.8865 7.2967 -97.4633 0.327083L-102.537 19.6729C-77.3703 26.2726 -36.5327 40.7184 3.4104 62.4325C43.5447 84.2505 81.5644 112.758 102.546 146.959L119.594 136.5Z" fill="#90D5D3"/>
<path d="M306.047 346.472C306.584 351.969 311.475 355.99 316.972 355.453C322.469 354.916 326.49 350.025 325.953 344.528L306.047 346.472ZM115.945 172.459L125.208 168.69L115.945 172.459ZM325.953 344.528C321.132 295.172 307.905 263.109 288.947 242.165C269.909 221.131 246.256 212.61 223.52 207.962C212.24 205.657 200.841 204.244 190.388 202.828C179.743 201.385 170.06 199.939 161.318 197.595C144.275 193.027 132.022 185.438 125.208 168.69L106.682 176.227C116.66 200.751 135.46 211.37 156.139 216.913C166.258 219.625 177.103 221.21 187.703 222.647C198.497 224.109 209.061 225.42 219.514 227.557C240.244 231.795 259.133 239.028 274.119 255.586C289.187 272.233 301.469 299.598 306.047 346.472L325.953 344.528ZM125.208 168.69C110.944 133.634 85.6968 105.577 60.4066 84.8472C35.1145 64.1157 9.19636 50.2325 -7.32289 43.7006L-14.6771 62.2994C-0.0761454 68.0728 24.0445 80.902 47.728 100.315C71.4134 119.729 94.0783 145.249 106.682 176.227L125.208 168.69Z" fill="#338899"/>
</svg>
