<svg width="700" height="700" viewBox="0 0 700 700" fill="none" xmlns="http://www.w3.org/2000/svg">
<rect width="700" height="700" fill="white"/>
<g clip-path="url(#clip0_187_30)">
<path d="M549 142H612V205H549V142Z" fill="#F7DF1E"/>
<path d="M565.565 194.647L570.386 191.73C571.316 193.379 572.162 194.774 574.192 194.774C576.137 194.774 577.364 194.013 577.364 191.053V170.923H583.284V191.137C583.284 197.269 579.69 200.06 574.446 200.06C569.71 200.06 566.961 197.607 565.565 194.647M586.5 194.013L591.321 191.222C592.59 193.294 594.239 194.817 597.157 194.817C599.61 194.817 601.174 193.59 601.174 191.898C601.174 189.869 599.567 189.15 596.861 187.966L595.381 187.331C591.109 185.513 588.276 183.229 588.276 178.408C588.276 173.968 591.659 170.584 596.946 170.584C600.709 170.584 603.416 171.896 605.361 175.321L600.751 178.282C599.736 176.463 598.637 175.744 596.945 175.744C595.211 175.744 594.112 176.844 594.112 178.282C594.112 180.058 595.211 180.777 597.749 181.876L599.229 182.511C604.261 184.668 607.094 186.867 607.094 191.814C607.094 197.143 602.908 200.061 597.283 200.061C591.786 200.061 588.234 197.439 586.5 194.013" fill="black"/>
</g>
<g clip-path="url(#clip1_187_30)">
<path d="M625.465 122.788L602.269 116.058L597.099 55.4663H653.901L648.726 116.049L625.465 122.788Z" fill="#264DE4"/>
<path d="M644.296 112.191L648.718 60.4204H625.5V117.637L644.296 112.191Z" fill="#2965F1"/>
<path d="M608.95 82.8932L609.587 90.3245H625.5V82.8932H608.95ZM607.669 67.8521L608.315 75.2834H625.5V67.8521H607.669ZM625.5 102.193L625.469 102.202L617.549 99.967L617.043 94.0403H609.905L610.901 105.709L625.467 109.934L625.5 109.925V102.193Z" fill="#EBEBEB"/>
<path d="M610.467 39H619.08V42.7639H614.069V46.5279H619.08V50.2916H610.467V39ZM620.802 39H629.415V42.273H624.404V42.9275H629.415V50.4554H620.803V47.0184H625.813V46.3638H620.802L620.802 39ZM631.138 39H639.75V42.273H634.739V42.9275H639.75V50.4554H631.138V47.0184H636.148V46.3638H631.138L631.138 39Z" fill="black"/>
<path d="M642.005 82.8932L643.288 67.8521H625.475V75.2834H635.495L634.848 82.8932H625.475V90.3245H634.232L633.406 99.9624L625.475 102.199V109.931L640.053 105.709L640.16 104.453L641.831 84.8887L642.005 82.8932Z" fill="white"/>
</g>
<g clip-path="url(#clip2_187_30)">
<path d="M556.901 55.4663L551.726 116.049L528.465 122.788L505.269 116.058L500.099 55.4663H556.901Z" fill="#E44D26"/>
<path d="M528.5 117.637L547.296 112.191L551.718 60.4204H528.5V117.637Z" fill="#F16529"/>
<path d="M518.44 75.2834H528.5V67.8521H510.669L510.839 69.8457L512.587 90.3245H528.5V82.8932H519.09L518.44 75.2834ZM520.043 94.0403H512.905L513.901 105.709L528.467 109.934L528.5 109.925V102.193L528.469 102.202L520.549 99.967L520.043 94.0403Z" fill="#EBEBEB"/>
<path d="M505.384 39H508.998V42.7311H512.303V39H515.917V50.2988H512.304V46.5153H508.998V50.2988H505.384L505.384 39ZM520.669 42.747H517.488V39H527.466V42.747H524.284V50.2988H520.67V42.747H520.669ZM529.05 39H532.818L535.136 42.9701L537.451 39H541.221V50.2988H537.622V44.6985L535.136 48.7158H535.073L532.586 44.6985V50.2988H529.05V39ZM543.019 39H546.634V46.5642H551.716V50.2988H543.019L543.019 39Z" fill="black"/>
<path d="M528.475 90.3245H537.232L536.406 99.9624L528.475 102.199V109.931L543.053 105.709L543.16 104.453L544.831 84.8887L545.005 82.8932H528.475V90.3245ZM528.475 75.2652V75.2834H545.652L545.794 73.6131L546.118 69.8457L546.288 67.8521H528.475V75.2652Z" fill="white"/>
</g>
<path d="M436.749 295.537C433.801 294.48 430.828 293.5 427.833 292.599C428.336 290.449 428.8 288.325 429.211 286.238C435.96 251.973 431.548 224.368 416.476 215.279C402.026 206.566 378.393 215.651 354.526 237.374C352.173 239.519 349.873 241.726 347.628 243.992C346.124 242.485 344.594 241.007 343.039 239.559C318.024 216.333 292.952 206.543 277.896 215.658C263.459 224.399 259.184 250.349 265.26 282.823C265.865 286.039 266.547 289.239 267.307 292.419C263.758 293.473 260.334 294.596 257.056 295.791C227.729 306.484 209 323.242 209 340.624C209 358.577 229.106 376.583 259.652 387.502C262.128 388.384 264.625 389.2 267.141 389.952C266.324 393.377 265.599 396.825 264.966 400.292C259.173 432.203 263.697 457.54 278.095 466.225C292.967 475.194 317.927 465.976 342.231 443.757C344.201 441.951 346.129 440.094 348.011 438.187C350.443 440.641 352.939 443.023 355.498 445.331C379.041 466.517 402.292 475.072 416.676 466.363C431.534 457.368 436.363 430.149 430.094 397.033C429.6 394.439 429.046 391.857 428.433 389.291C430.186 388.748 431.906 388.189 433.583 387.607C465.339 376.605 486 358.817 486 340.624C486 323.179 466.666 306.308 436.749 295.537ZM429.862 375.862C428.347 376.385 426.793 376.891 425.209 377.383C421.704 365.777 416.973 353.436 411.183 340.684C416.708 328.237 421.257 316.053 424.664 304.522C427.498 305.38 430.247 306.284 432.898 307.238C458.532 316.467 474.167 330.111 474.167 340.624C474.167 351.822 457.281 366.36 429.862 375.862ZM418.486 399.437C421.258 414.079 421.653 427.319 419.816 437.669C418.167 446.97 414.85 453.17 410.747 455.654C402.018 460.938 383.35 454.069 363.216 435.951C360.836 433.804 358.514 431.589 356.251 429.308C364.057 420.381 371.858 410.004 379.471 398.477C392.862 397.235 405.513 395.202 416.986 392.429C417.539 394.752 418.039 397.089 418.486 399.437ZM303.435 454.74C294.907 457.89 288.114 457.98 284.007 455.504C275.27 450.235 271.638 429.89 276.592 402.601C277.181 399.376 277.856 396.169 278.615 392.983C289.961 395.609 302.52 397.496 315.943 398.635C323.608 409.913 331.633 420.279 339.721 429.357C338.002 431.096 336.243 432.791 334.444 434.44C323.696 444.264 312.927 451.235 303.435 454.74ZM263.48 375.792C249.973 370.964 238.819 364.689 231.173 357.842C224.302 351.69 220.834 345.58 220.834 340.624C220.834 330.076 235.871 316.621 260.952 307.477C263.995 306.368 267.181 305.321 270.486 304.339C273.953 316.13 278.5 328.459 283.987 340.925C278.429 353.576 273.817 366.102 270.317 378.032C268.021 377.344 265.741 376.597 263.48 375.792ZM276.874 280.446C271.668 252.623 275.125 231.636 283.826 226.369C293.092 220.758 313.584 228.757 335.182 248.813C336.591 250.124 337.976 251.462 339.338 252.825C331.29 261.863 323.338 272.152 315.741 283.364C302.714 284.627 290.243 286.655 278.778 289.372C278.072 286.414 277.437 283.437 276.874 280.446ZM396.359 311.303C393.651 306.411 390.843 301.58 387.936 296.815C396.774 297.984 405.242 299.535 413.193 301.432C410.806 309.434 407.831 317.8 404.328 326.378C401.768 321.298 399.111 316.272 396.359 311.303ZM347.633 261.67C353.091 267.855 358.557 274.758 363.934 282.249C353.027 281.711 342.102 281.708 331.195 282.243C336.577 274.821 342.09 267.926 347.633 261.67ZM298.594 311.386C295.877 316.315 293.269 321.31 290.775 326.366C287.329 317.819 284.381 309.415 281.973 301.299C289.876 299.45 298.304 297.939 307.086 296.791C304.147 301.586 301.315 306.453 298.594 311.386ZM307.338 385.337C298.265 384.278 289.711 382.844 281.81 381.045C284.255 372.785 287.269 364.202 290.789 355.472C293.293 360.532 295.911 365.529 298.641 370.46C301.448 375.53 304.354 380.495 307.338 385.337ZM347.96 420.45C342.351 414.122 336.757 407.121 331.293 399.592C336.597 399.809 342.004 399.92 347.5 399.92C353.146 399.92 358.727 399.788 364.221 399.532C358.827 407.197 353.381 414.208 347.96 420.45ZM404.44 355.026C408.142 363.852 411.263 372.39 413.741 380.509C405.71 382.426 397.039 383.969 387.902 385.116C390.83 380.262 393.665 375.347 396.406 370.376C399.192 365.322 401.871 360.204 404.44 355.026ZM386.156 364.193C381.96 371.815 377.528 379.293 372.867 386.615C364.425 387.24 355.964 387.551 347.5 387.546C338.879 387.546 330.495 387.266 322.421 386.718C317.638 379.413 313.122 371.922 308.881 364.261C304.66 356.639 300.719 348.853 297.063 340.919C300.71 332.984 304.64 325.194 308.847 317.567L308.846 317.568C313.05 309.939 317.531 302.48 322.277 295.207C330.514 294.555 338.962 294.216 347.499 294.216C356.075 294.216 364.534 294.559 372.77 295.215C377.468 302.477 381.92 309.911 386.117 317.501C390.337 325.112 394.32 332.863 398.058 340.744C394.358 348.706 390.388 356.527 386.156 364.193ZM410.566 226C419.841 231.594 423.449 254.155 417.621 283.74C417.249 285.627 416.831 287.55 416.377 289.499C404.883 286.725 392.404 284.662 379.339 283.38C371.728 272.045 363.841 261.739 355.924 252.818C357.999 250.726 360.123 248.689 362.295 246.708C382.745 228.097 401.858 220.748 410.566 226ZM347.5 314.756C361.161 314.756 372.235 326.338 372.235 340.624C372.235 354.91 361.161 366.492 347.5 366.492C333.839 366.492 322.765 354.91 322.765 340.624C322.765 326.338 333.839 314.756 347.5 314.756Z" fill="#00D8FF"/>
<path d="M592.5 398.687C590.93 398.688 589.387 398.275 588.028 397.49L573.797 389.066C571.673 387.877 572.708 387.457 573.41 387.212C575.669 386.514 577.832 385.537 579.848 384.303C580.017 384.224 580.203 384.191 580.388 384.205C580.574 384.218 580.753 384.279 580.908 384.382L591.843 390.878C592.047 390.985 592.274 391.042 592.504 391.042C592.734 391.042 592.961 390.985 593.165 390.878L635.808 366.264C636.007 366.145 636.173 365.976 636.287 365.773C636.401 365.57 636.461 365.342 636.46 365.109V315.874C636.461 315.638 636.4 315.405 636.284 315.199C636.168 314.993 636.001 314.821 635.8 314.698L593.156 290.105C592.955 289.992 592.728 289.933 592.498 289.933C592.267 289.933 592.04 289.992 591.839 290.105L549.221 314.706C549.017 314.826 548.849 314.997 548.731 315.202C548.613 315.406 548.55 315.638 548.547 315.874V365.088C548.548 365.32 548.61 365.548 548.728 365.748C548.845 365.948 549.014 366.114 549.217 366.227L560.912 372.977C567.251 376.144 571.132 372.412 571.132 368.663V320.072C571.132 319.741 571.264 319.424 571.498 319.19C571.732 318.956 572.049 318.825 572.379 318.825H577.782C578.113 318.825 578.43 318.956 578.664 319.19C578.898 319.424 579.029 319.741 579.029 320.072V368.667C579.029 377.125 574.424 381.967 566.403 381.967C562.942 382.027 559.536 381.102 556.581 379.298L545.372 372.869C544.011 372.076 542.882 370.941 542.097 369.575C541.313 368.21 540.9 366.663 540.9 365.088V315.874C540.896 314.297 541.307 312.746 542.092 311.378C542.877 310.011 544.008 308.873 545.372 308.081L588.019 283.459C589.393 282.708 590.934 282.314 592.5 282.314C594.066 282.314 595.606 282.708 596.98 283.459L639.623 308.081C640.984 308.872 642.113 310.006 642.899 311.37C643.684 312.734 644.098 314.279 644.1 315.853V365.088C644.097 366.663 643.683 368.21 642.898 369.575C642.112 370.94 640.984 372.075 639.623 372.869L596.98 397.49C595.618 398.276 594.073 398.689 592.5 398.687Z" fill="#83CD29"/>
<path d="M584.412 348.617C584.412 348.286 584.543 347.969 584.777 347.735C585.011 347.501 585.328 347.37 585.659 347.37H591.174C591.469 347.371 591.754 347.476 591.978 347.667C592.203 347.858 592.352 348.123 592.4 348.413C593.232 354.028 595.725 356.859 607.001 356.859C615.983 356.859 619.811 354.826 619.811 350.059C619.811 347.312 618.726 345.271 604.765 343.904C593.095 342.748 585.879 340.163 585.879 330.837C585.879 322.233 593.132 317.1 605.289 317.1C618.951 317.1 625.713 321.842 626.569 332.017C626.582 332.187 626.56 332.357 626.505 332.519C626.449 332.68 626.361 332.828 626.246 332.953C626.132 333.079 625.992 333.18 625.837 333.25C625.681 333.32 625.513 333.357 625.343 333.359H619.79C619.512 333.355 619.242 333.258 619.025 333.084C618.808 332.909 618.656 332.666 618.593 332.395C617.267 326.489 614.021 324.602 605.293 324.602C595.484 324.602 594.346 328.019 594.346 330.579C594.346 333.679 595.692 334.585 608.934 336.335C622.039 338.068 628.265 340.521 628.265 349.731C628.265 359.024 620.517 364.344 607.005 364.344C588.323 364.369 584.412 355.803 584.412 348.617Z" fill="#83CD29"/>
<g clip-path="url(#clip3_187_30)">
<path d="M221.575 144.442V119.585H255.202V118.131H221.575V95.4536H257.328V94H220V145.896H257.642V144.442H221.575ZM287.962 108.536L274.023 125.472L260.399 108.537H258.351L273.078 126.562L256.933 145.895H258.824L274.022 127.652L289.3 145.895H291.269L275.046 126.562L289.851 108.536L287.962 108.536ZM295.994 158.688V135.43H296.152C297.097 138.822 298.961 141.547 301.743 143.607C304.526 145.666 308.069 146.696 312.374 146.696C315.157 146.696 317.624 146.175 319.777 145.133C321.929 144.091 323.727 142.674 325.171 140.881C326.615 139.088 327.717 137.005 328.479 134.63C329.24 132.256 329.621 129.76 329.621 127.144C329.621 124.334 329.227 121.741 328.439 119.367C327.652 116.993 326.51 114.933 325.014 113.189C323.517 111.444 321.706 110.087 319.58 109.119C317.454 108.149 315.052 107.665 312.374 107.665C310.327 107.665 308.424 107.944 306.665 108.501C304.906 109.058 303.344 109.845 301.979 110.863C300.606 111.888 299.411 113.102 298.435 114.461C297.438 115.842 296.677 117.356 296.152 119.004H295.994V108.536H294.419V158.688H295.994ZM312.374 145.314C307.44 145.314 303.475 143.752 300.483 140.626C297.491 137.501 295.994 133.007 295.994 127.143C295.994 124.721 296.362 122.419 297.097 120.239C297.832 118.058 298.895 116.144 300.286 114.497C301.677 112.849 303.397 111.541 305.444 110.572C307.492 109.603 309.802 109.118 312.374 109.118C314.999 109.118 317.296 109.603 319.265 110.572C321.234 111.541 322.861 112.861 324.147 114.533C325.434 116.205 326.405 118.119 327.061 120.275C327.717 122.431 328.045 124.721 328.045 127.143C328.045 129.324 327.744 131.493 327.14 133.649C326.536 135.805 325.604 137.743 324.344 139.464C323.084 141.183 321.47 142.589 319.501 143.679C317.532 144.769 315.157 145.314 312.374 145.314ZM338.283 145.896V124.745C338.283 122.71 338.598 120.723 339.228 118.785C339.858 116.847 340.829 115.139 342.142 113.661C343.454 112.183 345.121 111.02 347.143 110.172C349.164 109.324 351.566 108.973 354.348 109.118V107.664C351.933 107.616 349.82 107.858 348.009 108.391C346.197 108.924 344.636 109.651 343.323 110.572C342.011 111.492 340.961 112.57 340.173 113.806C339.386 115.04 338.803 116.375 338.441 117.767H338.283V108.536H336.708V145.896L338.283 145.896ZM356.317 127.507H390.179C390.285 124.939 390.009 122.468 389.353 120.093C388.697 117.719 387.646 115.611 386.203 113.77C384.759 111.929 382.895 110.451 380.611 109.336C378.328 108.221 375.611 107.664 372.461 107.664C370.203 107.664 367.998 108.101 365.846 108.973C363.693 109.845 361.803 111.117 360.176 112.788C358.548 114.46 357.236 116.507 356.238 118.931C355.241 121.353 354.742 124.115 354.742 127.216C354.742 129.978 355.083 132.559 355.766 134.957C356.448 137.355 357.498 139.439 358.916 141.208C360.334 142.976 362.158 144.345 364.389 145.314C366.62 146.284 369.311 146.744 372.461 146.695C377.081 146.695 380.966 145.496 384.116 143.098C387.266 140.699 389.13 137.319 389.707 132.958H388.132C387.45 137.077 385.704 140.166 382.895 142.225C380.086 144.285 376.556 145.314 372.303 145.314C369.416 145.314 366.974 144.854 364.979 143.934C362.985 143.013 361.357 141.753 360.097 140.154C358.837 138.555 357.905 136.677 357.301 134.521C356.697 132.365 356.369 130.027 356.317 127.507ZM388.605 126.053H356.317C356.474 123.437 356.999 121.087 357.892 119.003C358.785 116.919 359.953 115.139 361.397 113.661C362.84 112.183 364.52 111.057 366.436 110.281C368.353 109.506 370.413 109.118 372.618 109.118C375.243 109.118 377.553 109.566 379.548 110.463C381.543 111.359 383.21 112.583 384.549 114.133C385.888 115.684 386.898 117.489 387.581 119.548C388.263 121.608 388.605 123.776 388.605 126.053ZM422.861 119.585H424.436C424.436 115.417 423.124 112.389 420.499 110.499C417.873 108.609 414.303 107.664 409.789 107.664C407.268 107.664 405.142 107.955 403.41 108.537C401.677 109.118 400.26 109.869 399.157 110.79C398.055 111.71 397.267 112.728 396.795 113.842C396.322 114.957 396.086 116.023 396.086 117.041C396.086 119.076 396.479 120.699 397.267 121.91C398.055 123.122 399.288 124.067 400.968 124.745C402.123 125.229 403.436 125.665 404.906 126.054C406.376 126.441 408.082 126.853 410.025 127.289C411.757 127.677 413.463 128.064 415.144 128.452C416.824 128.84 418.307 129.36 419.593 130.014C420.879 130.669 421.929 131.505 422.743 132.522C423.557 133.54 423.963 134.872 423.963 136.52C423.963 138.119 423.557 139.476 422.743 140.59C421.936 141.699 420.874 142.629 419.633 143.316C418.372 144.018 416.968 144.527 415.419 144.842C413.87 145.157 412.361 145.314 410.891 145.314C406.114 145.314 402.451 144.333 399.905 142.371C397.359 140.408 396.086 137.319 396.086 133.103H394.511C394.511 137.804 395.889 141.244 398.645 143.425C401.402 145.605 405.484 146.695 410.891 146.695C412.623 146.695 414.369 146.513 416.128 146.15C417.887 145.787 419.462 145.193 420.853 144.369C422.232 143.557 423.391 142.463 424.239 141.172C425.105 139.863 425.539 138.264 425.539 136.374C425.539 134.581 425.158 133.128 424.397 132.013C423.635 130.899 422.638 129.978 421.404 129.251C420.17 128.525 418.779 127.955 417.23 127.543C415.673 127.129 414.111 126.729 412.545 126.344C410.617 125.877 408.688 125.417 406.756 124.963C405.103 124.575 403.567 124.115 402.15 123.582C400.785 123.049 399.695 122.286 398.881 121.293C398.068 120.299 397.661 118.882 397.661 117.041C397.661 116.702 397.766 116.096 397.976 115.224C398.186 114.351 398.685 113.467 399.472 112.57C400.26 111.674 401.467 110.875 403.095 110.172C404.722 109.47 406.954 109.118 409.789 109.118C411.731 109.118 413.503 109.312 415.104 109.699C416.705 110.087 418.084 110.705 419.238 111.553C420.393 112.401 421.286 113.479 421.916 114.787C422.546 116.096 422.861 117.695 422.861 119.585ZM459.322 119.585H460.897C460.897 115.417 459.585 112.389 456.96 110.499C454.335 108.609 450.765 107.664 446.25 107.664C443.73 107.664 441.603 107.955 439.871 108.537C438.138 109.118 436.721 109.869 435.619 110.79C434.516 111.71 433.729 112.728 433.256 113.842C432.783 114.957 432.547 116.023 432.547 117.041C432.547 119.076 432.941 120.699 433.729 121.91C434.516 123.122 435.75 124.067 437.43 124.745C438.585 125.229 439.897 125.665 441.367 126.054C442.837 126.441 444.543 126.853 446.486 127.289C448.219 127.677 449.925 128.064 451.605 128.452C453.285 128.84 454.768 129.36 456.054 130.014C457.341 130.669 458.391 131.505 459.204 132.522C460.018 133.54 460.425 134.872 460.425 136.52C460.425 138.119 460.018 139.476 459.204 140.59C458.397 141.698 457.335 142.629 456.094 143.316C454.834 144.018 453.429 144.527 451.88 144.842C450.332 145.157 448.822 145.314 447.352 145.314C442.575 145.314 438.913 144.333 436.367 142.371C433.82 140.408 432.547 137.319 432.547 133.103H430.972C430.972 137.804 432.35 141.244 435.107 143.425C437.863 145.605 441.945 146.695 447.352 146.695C449.085 146.695 450.831 146.513 452.589 146.15C454.348 145.787 455.923 145.193 457.315 144.369C458.694 143.557 459.852 142.463 460.701 141.172C461.567 139.863 462 138.264 462 136.374C462 134.581 461.62 133.128 460.858 132.013C460.097 130.899 459.1 129.978 457.866 129.251C456.632 128.525 455.241 127.955 453.692 127.543C452.135 127.129 450.572 126.729 449.006 126.344C447.079 125.877 445.149 125.417 443.218 124.963C441.564 124.575 440.029 124.115 438.611 123.582C437.246 123.049 436.157 122.286 435.343 121.293C434.529 120.299 434.122 118.882 434.122 117.041C434.122 116.702 434.227 116.096 434.438 115.224C434.647 114.351 435.147 113.467 435.933 112.57C436.721 111.674 437.929 110.875 439.556 110.172C441.184 109.47 443.415 109.118 446.25 109.118C448.193 109.118 449.964 109.312 451.566 109.699C453.167 110.087 454.545 110.705 455.7 111.553C456.855 112.401 457.748 113.479 458.378 114.787C459.008 116.096 459.323 117.695 459.323 119.585" fill="#222222"/>
</g>
<g clip-path="url(#clip4_187_30)">
<path d="M157.62 270.288C157.033 268.633 155.493 267.48 153.503 267.203C152.564 267.073 151.489 267.129 150.217 267.373C148 267.798 146.355 267.96 145.154 267.991C149.686 260.875 153.37 252.761 155.491 245.122C158.921 232.771 157.088 227.144 154.947 224.599C149.278 217.862 141.008 214.243 131.032 214.133C125.709 214.072 121.037 215.049 118.6 215.752C116.33 215.38 113.89 215.172 111.33 215.133C106.531 215.062 102.29 216.035 98.6671 218.035C96.6612 217.404 93.4417 216.515 89.7238 215.947C80.9796 214.612 73.9321 215.653 68.7771 219.04C62.535 223.141 59.6413 230.266 60.1765 240.218C60.3464 243.378 62.2467 252.992 65.2388 262.109C66.9584 267.349 68.792 271.701 70.6889 275.045C73.3789 279.786 76.2573 282.577 79.4886 283.58C81.2997 284.141 84.5903 284.534 88.0513 281.853C88.49 282.347 89.0754 282.838 89.8521 283.294C90.8386 283.873 92.0448 284.346 93.2495 284.626C97.591 285.636 101.658 285.383 105.127 283.968C105.148 284.542 105.165 285.09 105.179 285.564C105.202 286.332 105.225 287.085 105.255 287.789C105.46 292.551 105.809 296.254 106.841 298.845C106.898 298.987 106.974 299.204 107.054 299.435C107.569 300.901 108.43 303.356 110.62 305.278C112.889 307.269 115.632 307.88 118.145 307.88C119.405 307.88 120.608 307.726 121.662 307.516C125.421 306.767 129.691 305.625 132.78 301.535C135.7 297.668 137.119 291.844 137.376 282.667C137.409 282.408 137.44 282.16 137.469 281.924L137.531 281.439L138.219 281.495L138.396 281.506C142.225 281.668 146.906 280.913 149.782 279.671C152.054 278.69 159.334 275.115 157.62 270.288Z" fill="black"/>
<path d="M151.073 271.227C139.688 273.411 138.905 269.826 138.905 269.826C150.926 253.236 155.951 232.178 151.615 227.024C139.784 212.965 119.306 219.614 118.964 219.786L118.854 219.805C116.605 219.37 114.088 219.112 111.258 219.069C106.107 218.99 102.199 220.325 99.2342 222.416C99.2342 222.416 62.7024 208.418 64.4017 240.021C64.7631 246.745 74.7622 290.893 86.6883 277.558C91.0474 272.682 95.2595 268.559 95.2595 268.559C97.3512 269.852 99.8555 270.511 102.481 270.274L102.685 270.113C102.621 270.719 102.65 271.311 102.766 272.012C99.694 275.205 100.597 275.765 94.4552 276.941C88.2402 278.132 91.8911 280.253 94.2749 280.808C97.1647 281.48 103.85 282.432 108.367 276.55L108.187 277.221C109.391 278.118 110.236 283.055 110.095 287.53C109.953 292.005 109.858 295.077 110.807 297.477C111.756 299.877 112.701 305.277 120.775 303.668C127.521 302.323 131.018 298.838 131.504 293.025C131.849 288.893 132.63 289.504 132.679 285.809L133.306 284.06C134.028 278.458 133.421 276.65 137.577 277.491L138.588 277.574C141.646 277.703 145.651 277.116 148.001 276.1C153.061 273.916 156.062 270.269 151.072 271.227H151.073Z" fill="#336791"/>
<path d="M101.373 243.028C100.347 242.895 99.4178 243.018 98.9477 243.349C98.6835 243.535 98.6016 243.751 98.5794 243.899C98.5205 244.293 98.8168 244.728 98.999 244.952C99.5142 245.587 100.267 246.024 101.012 246.12C101.12 246.134 101.227 246.141 101.334 246.141C102.576 246.141 103.706 245.241 103.806 244.577C103.93 243.745 102.632 243.19 101.373 243.028ZM135.36 243.054C135.262 242.402 134.015 242.216 132.832 242.369C131.649 242.522 130.503 243.019 130.599 243.672C130.676 244.18 131.662 245.048 132.83 245.048C132.928 245.048 133.028 245.042 133.128 245.028C133.908 244.928 134.48 244.468 134.751 244.202C135.165 243.798 135.404 243.347 135.36 243.054Z" fill="white"/>
<path d="M154.862 270.979C154.427 269.758 153.03 269.365 150.709 269.811C143.816 271.134 141.348 270.217 140.537 269.662C145.895 262.071 150.302 252.895 152.68 244.333C153.806 240.278 154.428 236.511 154.479 233.441C154.535 230.072 153.918 227.596 152.646 226.083C147.515 219.986 139.985 216.715 130.871 216.625C124.604 216.56 119.31 218.051 118.284 218.471C116.122 217.971 113.766 217.664 111.201 217.625C106.497 217.554 102.431 218.601 99.0643 220.737C97.602 220.23 93.8229 219.024 89.2012 218.331C81.2111 217.135 74.8618 218.041 70.3308 221.027C64.9244 224.59 62.4284 230.958 62.9119 239.955C63.0746 242.982 64.9289 252.294 67.8552 261.211C71.707 272.948 75.8942 279.593 80.2996 280.96C80.8153 281.119 81.4098 281.231 82.0655 281.231C83.6726 281.231 85.6429 280.558 87.6929 278.265C90.1933 275.475 92.7797 272.753 95.4491 270.102C97.1809 270.967 99.0835 271.45 101.029 271.498C101.033 271.545 101.038 271.593 101.043 271.64C100.708 272.011 100.38 272.388 100.059 272.77C98.7106 274.362 98.43 274.694 94.0901 275.525C92.8555 275.762 89.5767 276.39 89.5285 278.528C89.4764 280.864 93.4045 281.845 93.852 281.949C95.4115 282.312 96.9141 282.491 98.3469 282.491C101.832 282.491 104.898 281.426 107.349 279.364C107.274 287.691 107.647 295.896 108.722 298.396C109.602 300.443 111.753 305.444 118.546 305.444C119.543 305.444 120.64 305.336 121.847 305.096C128.937 303.682 132.016 300.767 133.207 294.341C133.845 290.907 134.938 282.707 135.453 278.308C136.539 278.623 137.936 278.767 139.447 278.767C142.599 278.767 146.235 278.144 148.515 277.16C151.077 276.053 155.7 273.338 154.862 270.979ZM137.977 241.255C137.954 242.553 137.762 243.732 137.558 244.963C137.339 246.286 137.112 247.654 137.055 249.315C136.999 250.932 137.216 252.613 137.426 254.238C137.85 257.521 138.285 260.901 136.6 264.235C136.32 263.774 136.071 263.297 135.854 262.808C135.644 262.336 135.19 261.577 134.56 260.528C132.11 256.442 126.374 246.873 129.31 242.968C130.185 241.806 132.405 240.611 137.977 241.255ZM131.223 219.255C139.39 219.422 145.85 222.264 150.424 227.7C153.932 231.87 150.069 250.844 138.886 267.212C138.774 267.079 138.661 266.947 138.547 266.814L138.405 266.65C141.295 262.211 140.73 257.819 140.227 253.925C140.02 252.327 139.825 250.818 139.875 249.4C139.926 247.897 140.14 246.608 140.346 245.362C140.6 243.826 140.859 242.237 140.787 240.364C140.841 240.168 140.862 239.935 140.834 239.66C140.652 237.863 138.447 232.487 133.953 227.621C131.495 224.96 127.91 221.981 123.015 219.972C125.12 219.567 127.999 219.188 131.223 219.255ZM85.5235 276.588C83.2649 279.113 81.7053 278.629 81.1924 278.47C77.8504 277.434 73.9725 270.863 70.5536 260.445C67.5952 251.43 65.8665 242.365 65.7294 239.824C65.2976 231.784 67.3927 226.182 71.957 223.171C79.3851 218.272 91.5976 221.204 96.5049 222.691C96.4344 222.756 96.3609 222.817 96.2912 222.883C88.2384 230.447 88.4294 243.37 88.4493 244.16C88.4486 244.465 88.4761 244.897 88.5136 245.49C88.6522 247.664 88.9102 251.71 88.2212 256.291C87.5811 260.548 88.9922 264.715 92.0918 267.724C92.4099 268.032 92.7443 268.325 93.0936 268.603C91.714 269.977 88.7154 273.016 85.5235 276.588ZM94.1287 265.908C91.6305 263.483 90.4958 260.111 91.0153 256.654C91.7427 251.815 91.4743 247.6 91.33 245.335C91.3097 245.018 91.2917 244.74 91.2814 244.521C92.4578 243.551 97.9094 240.834 101.797 241.663C103.571 242.041 104.652 243.164 105.102 245.097C107.428 255.104 105.409 259.274 103.788 262.626C103.454 263.316 103.138 263.969 102.868 264.644L102.659 265.166C102.13 266.485 101.638 267.712 101.333 268.877C98.6769 268.87 96.0933 267.815 94.1287 265.908M94.5364 279.403C93.7609 279.222 93.0634 278.909 92.6541 278.65C92.996 278.5 93.6043 278.297 94.6593 278.094C99.7649 277.117 100.553 276.427 102.275 274.393C102.67 273.927 103.118 273.399 103.737 272.755L103.738 272.754C104.661 271.793 105.083 271.956 105.849 272.251C106.469 272.49 107.074 273.213 107.319 274.01C107.435 274.386 107.565 275.099 107.139 275.655C103.542 280.339 98.3006 280.279 94.5364 279.403ZM121.256 302.529C115.01 303.774 112.799 300.81 111.342 297.421C110.401 295.234 109.939 285.369 110.267 274.474C110.271 274.329 110.249 274.189 110.206 274.058C110.167 273.798 110.109 273.54 110.031 273.288C109.543 271.703 108.355 270.377 106.929 269.827C106.362 269.609 105.323 269.208 104.073 269.505C104.339 268.484 104.802 267.331 105.303 266.082L105.513 265.557C105.749 264.965 106.046 264.352 106.36 263.702C108.057 260.196 110.381 255.393 107.859 244.542C106.914 240.478 103.759 238.494 98.9763 238.955C96.109 239.231 93.4856 240.307 92.1772 240.924C91.8958 241.056 91.6385 241.184 91.3981 241.309C91.7633 237.214 93.143 229.562 98.3041 224.72C101.554 221.672 105.881 220.167 111.154 220.248C121.544 220.406 128.206 225.365 131.966 229.498C135.206 233.059 136.961 236.646 137.661 238.581C132.395 238.083 128.814 239.05 126.999 241.464C123.049 246.715 129.16 256.907 132.096 261.805C132.635 262.703 133.099 263.479 133.246 263.809C134.202 265.964 135.44 267.403 136.344 268.454C136.621 268.776 136.89 269.088 137.094 269.361C135.499 269.788 132.635 270.776 132.896 275.715C132.685 278.193 131.188 289.796 130.427 293.895C129.423 299.311 127.281 301.328 121.256 302.529ZM147.327 274.78C145.697 275.484 142.968 276.012 140.375 276.125C137.512 276.25 136.054 275.827 135.711 275.567C135.55 272.489 136.782 272.167 138.085 271.827C138.29 271.774 138.49 271.721 138.683 271.659C138.803 271.749 138.934 271.839 139.078 271.928C141.379 273.341 145.484 273.493 151.28 272.38L151.343 272.369C150.561 273.048 149.224 273.961 147.327 274.78Z" fill="white"/>
</g>
<path fill-rule="evenodd" clip-rule="evenodd" d="M128.033 142.404C128.182 142.117 128.325 141.864 128.447 141.602C128.524 141.434 128.642 141.4 128.809 141.405C129.809 141.433 130.81 141.464 131.811 141.474C132.661 141.482 133.513 141.466 134.364 141.457C135.323 141.445 136.281 141.395 137.239 141.422C138.515 141.459 139.758 141.709 140.912 142.277C142.29 142.956 143.332 143.99 144.043 145.352C144.49 146.215 144.769 147.156 144.865 148.124C145.017 149.543 144.917 150.93 144.467 152.288C143.909 153.971 142.849 155.259 141.378 156.224C140.245 156.966 139.003 157.405 137.672 157.655C136.263 157.921 134.849 157.836 133.436 157.84C131.886 157.846 130.336 157.813 128.786 157.795C128.515 157.792 128.476 157.741 128.548 157.482L128.614 157.244C128.765 156.769 128.846 156.748 129.328 156.668C129.67 156.615 129.997 156.491 130.288 156.304C130.45 156.196 130.517 155.915 130.581 155.699C130.636 155.51 130.638 155.303 130.64 155.103C130.662 152.08 130.685 149.057 130.698 146.035C130.701 145.271 130.682 144.506 130.64 143.743C130.61 143.209 130.325 142.844 129.689 142.717C129.195 142.619 128.697 142.543 128.2 142.456L128.033 142.404ZM142.225 149.725C142.158 149.123 142.126 148.516 142.018 147.922C141.76 146.498 141.137 145.258 140.042 144.286C138.272 142.716 136.141 142.474 133.907 142.661C133.399 142.703 133.289 142.877 133.282 143.4C133.269 144.141 133.257 144.883 133.256 145.625C133.252 147.976 133.252 150.328 133.256 152.68C133.257 153.349 133.264 154.018 133.283 154.686C133.304 155.369 133.553 155.947 134.222 156.212C135.277 156.63 136.386 156.679 137.493 156.509C139.262 156.238 140.499 155.207 141.328 153.663C141.985 152.438 142.171 151.101 142.225 149.725ZM146.524 157.733C146.503 157.367 146.653 157.064 146.838 156.786C146.888 156.711 147.061 156.714 147.181 156.691L148.192 156.49C148.55 156.414 148.738 156.174 148.788 155.824C148.822 155.592 148.853 155.358 148.856 155.124C148.88 153.273 148.897 151.422 148.908 149.571C148.917 147.717 148.91 145.863 148.91 144.009L148.902 143.655C148.866 143.059 148.578 142.75 147.987 142.663L146.704 142.468C146.546 142.446 146.488 142.37 146.546 142.23C146.645 141.991 146.739 141.743 146.879 141.527C146.931 141.448 147.106 141.417 147.225 141.42C147.837 141.428 148.45 141.474 149.063 141.474L154.396 141.442C155.423 141.441 156.416 141.62 157.337 142.112C158.352 142.652 158.919 143.488 159.082 144.627C159.251 145.823 158.888 146.831 158.014 147.632C157.655 147.962 157.19 148.178 156.773 148.446L156.637 148.531C157.024 148.673 157.392 148.796 157.75 148.942C158.799 149.372 159.633 150.044 160.075 151.116C160.424 151.963 160.424 152.846 160.217 153.723C159.896 155.097 158.991 156.011 157.814 156.702C156.71 157.351 155.514 157.729 154.241 157.792C153.067 157.851 151.888 157.829 150.711 157.843L150.029 157.846C148.895 157.82 147.761 157.792 146.627 157.761L146.524 157.733ZM151.412 152.358H151.423C151.423 152.939 151.415 153.519 151.426 154.1C151.433 154.476 151.42 154.863 151.501 155.225C151.623 155.766 151.87 156.254 152.477 156.41C153.289 156.623 154.138 156.661 154.965 156.519C156.004 156.338 156.833 155.817 157.288 154.828C157.625 154.092 157.675 153.313 157.56 152.517C157.406 151.468 156.849 150.707 155.923 150.208C155.316 149.881 154.668 149.68 153.977 149.654C153.204 149.625 152.43 149.623 151.656 149.599C151.439 149.593 151.409 149.703 151.41 149.881C151.414 150.706 151.412 151.531 151.412 152.358ZM153.058 148.407C153.481 148.386 153.96 148.38 154.435 148.332C155.347 148.241 155.988 147.783 156.323 146.912C156.493 146.469 156.486 146.014 156.491 145.554C156.504 144.356 155.805 143.374 154.667 142.968C153.788 142.655 152.883 142.649 151.972 142.674C151.603 142.684 151.437 142.845 151.432 143.217L151.377 148.063C151.375 148.255 151.458 148.338 151.645 148.344L153.058 148.407Z" fill="#94795D"/>
<path fill-rule="evenodd" clip-rule="evenodd" d="M60.3077 156.802L60.2432 157.635C59.6429 157.635 59.0894 157.631 58.5358 157.637C57.4932 157.648 56.4506 157.664 55.4072 157.679L55.3065 157.686C55.1573 157.668 54.8863 157.668 54.8792 157.624C54.8351 157.376 54.8492 157.115 54.8607 156.858C54.8616 156.829 54.9631 156.792 55.0223 156.778L55.8336 156.597C56.3394 156.466 56.5177 156.248 56.5416 155.725C56.5689 155.136 56.5963 154.546 56.599 153.958C56.6069 152.508 56.5981 151.06 56.6043 149.611C56.6051 149.272 56.4877 149.019 56.1717 148.881C55.7961 148.715 55.4179 148.554 55.0373 148.399C54.8572 148.327 54.6232 148.287 54.6444 148.045C54.6656 147.799 54.8925 147.735 55.1061 147.686C55.9907 147.484 56.8762 147.287 57.7581 147.072C58.0424 147.002 58.3143 146.884 58.6541 146.766C58.6718 146.95 58.7045 147.125 58.7009 147.299L58.6488 148.13C58.648 148.224 58.6965 148.349 58.7663 148.401C58.8086 148.434 58.9508 148.375 59.0214 148.32C59.7753 147.746 60.5734 147.251 61.4836 146.962C62.8934 146.515 64.1037 146.929 64.9512 148.145C65.2496 148.573 65.2505 148.573 65.6646 148.274C66.3752 147.758 67.1185 147.302 67.9502 147.002C69.7758 146.342 71.53 147.179 72.1647 149.018C72.396 149.686 72.4843 150.375 72.4825 151.08L72.4657 155.757C72.4649 156.142 72.5929 156.362 72.9601 156.482C73.3724 156.617 73.7997 156.71 74.264 156.832L74.1563 157.636C73.6284 157.636 73.1429 157.633 72.6573 157.637C71.4708 157.648 70.2843 157.654 69.0987 157.681C68.8921 157.687 68.8383 157.635 68.8277 157.442C68.7932 156.823 68.7879 156.824 69.3706 156.685L69.5666 156.634C70.136 156.479 70.3258 156.304 70.3302 155.727C70.3435 154.069 70.3779 152.406 70.294 150.752C70.2066 149.036 68.8444 148.122 67.1812 148.562C66.6444 148.709 66.1389 148.952 65.6893 149.28C65.5348 149.391 65.5057 149.518 65.518 149.711C65.5648 150.442 65.5939 151.174 65.6001 151.906C65.6107 153.187 65.5948 154.468 65.6001 155.75C65.6019 156.269 65.7793 156.467 66.2922 156.587L67.0541 156.763L67.1954 156.795C67.2059 157.039 67.2157 157.282 67.2042 157.526C67.1971 157.679 67.0788 157.692 66.9464 157.689C66.2057 157.671 65.4642 157.646 64.7235 157.648C63.8221 157.649 62.9217 157.675 62.0212 157.691H61.8093C61.8093 157.432 61.797 157.185 61.8181 156.939C61.8226 156.88 61.9267 156.797 61.9982 156.778L62.8863 156.59C63.2633 156.497 63.4434 156.304 63.4646 155.921C63.5652 154.146 63.6376 152.371 63.4708 150.598C63.4301 150.247 63.3329 149.906 63.183 149.587C62.7283 148.582 61.7051 148.163 60.5248 148.465C59.9642 148.608 59.4584 148.865 58.9799 149.189C58.8756 149.253 58.7899 149.343 58.7313 149.451C58.6728 149.559 58.6434 149.68 58.6462 149.802C58.6462 151.572 58.6524 153.342 58.6577 155.111L58.6674 155.794C58.678 156.27 58.8801 156.52 59.3524 156.623C59.6561 156.692 59.9634 156.738 60.3077 156.802Z" fill="#50382B"/>
<path fill-rule="evenodd" clip-rule="evenodd" d="M113.681 146.947C113.818 147.612 113.815 148.211 113.326 148.665C112.84 149.116 112.226 148.964 111.626 148.863C111.682 149.179 111.744 149.448 111.774 149.72C111.992 151.74 111.122 153.24 109.248 154.097C108.54 154.421 107.789 154.541 107.022 154.602C106.64 154.632 106.307 154.924 106.27 155.237C106.233 155.555 106.433 155.882 106.832 155.977C107.302 156.089 107.793 156.121 108.276 156.176C109.313 156.295 110.36 156.349 111.384 156.534C112.933 156.813 113.797 158.165 113.524 159.72C113.282 161.104 112.48 162.112 111.362 162.884C109.479 164.189 107.414 164.57 105.214 163.905C103.956 163.523 103.068 162.696 102.762 161.358C102.608 160.688 102.772 160.081 103.276 159.627C103.875 159.088 104.528 158.608 105.155 158.099L105.358 157.895L105.125 157.732C104.485 157.428 103.973 157.013 103.775 156.29C103.707 156.046 103.777 155.885 103.985 155.76C104.338 155.547 104.689 155.331 105.038 155.111C105.202 155.009 105.365 154.903 105.517 154.784C105.726 154.625 105.707 154.507 105.458 154.415C104.879 154.202 104.364 153.892 103.965 153.415C103.299 152.62 103.11 151.672 103.165 150.672C103.25 149.11 104.099 148.08 105.478 147.418C107.117 146.632 108.762 146.582 110.433 147.299C111.051 147.564 111.702 147.62 112.365 147.574C112.861 147.539 113.293 147.352 113.681 146.947ZM107.64 158.142C106.409 158.131 106.023 158.283 105.301 159.018C104.492 159.843 104.497 160.986 105.304 161.814C105.916 162.442 106.681 162.736 107.531 162.824C108.524 162.926 109.502 162.885 110.405 162.388C111.367 161.856 111.845 160.867 111.629 159.871C111.45 159.049 110.844 158.673 110.107 158.457C109.268 158.211 108.401 158.165 107.64 158.142ZM105.222 150.278C105.267 150.619 105.286 150.965 105.362 151.3C105.559 152.167 105.936 152.929 106.798 153.314C107.811 153.769 109.104 153.574 109.547 152.153C109.85 151.207 109.815 150.185 109.448 149.262C109.292 148.841 109.012 148.476 108.644 148.217C107.765 147.604 106.179 147.522 105.532 148.878C105.322 149.319 105.24 149.788 105.222 150.278Z" fill="#4F382B"/>
<path fill-rule="evenodd" clip-rule="evenodd" d="M92.8012 146.729C92.8339 146.88 92.8992 147.051 92.901 147.223C92.9036 147.551 92.8683 147.878 92.8498 148.206V148.49L93.127 148.278C93.8862 147.653 94.7019 147.121 95.6518 146.834C97.3662 146.317 99.0789 147.256 99.6377 149.002C99.8496 149.666 99.9334 150.348 99.9414 151.042C99.959 152.583 99.9696 154.125 99.9855 155.666C99.9908 156.22 100.054 156.319 100.578 156.478C100.876 156.567 101.18 156.635 101.487 156.681C101.656 156.707 101.728 156.773 101.719 156.938L101.721 157.09C101.715 157.729 101.671 157.758 101.052 157.756C99.5706 157.753 98.0901 157.762 96.6088 157.774C96.1674 157.778 96.1665 157.791 96.1223 157.355L96.1135 157.104C96.1409 156.728 96.1497 156.732 96.5196 156.677C96.7686 156.64 97.0157 156.583 97.2585 156.519C97.5084 156.455 97.6284 156.27 97.662 156.023C97.6787 155.898 97.7008 155.772 97.6999 155.647C97.6787 153.962 97.7061 152.276 97.6143 150.595C97.5401 149.234 96.502 148.424 95.1362 148.516C94.4779 148.562 93.8451 148.789 93.3079 149.172C92.9433 149.427 92.8701 149.796 92.8718 150.192C92.8789 151.767 92.8939 153.342 92.9107 154.918C92.9142 155.263 92.9239 155.608 92.9566 155.951C92.991 156.325 93.1225 156.476 93.4898 156.557C93.8412 156.635 94.1996 156.68 94.5748 156.742L94.6066 157.032C94.6189 157.707 94.5483 157.758 93.8924 157.755C92.3607 157.749 90.829 157.759 89.2982 157.775C89.0572 157.779 88.9548 157.703 88.961 157.468L88.9574 157.367C88.9177 156.759 88.9354 156.736 89.511 156.637L89.7829 156.583C90.4061 156.442 90.5659 156.276 90.5747 155.643C90.6039 153.638 90.6145 151.634 90.6348 149.63C90.6374 149.342 90.5288 149.118 90.2605 148.999C89.8838 148.834 89.5051 148.674 89.1243 148.519C88.9142 148.433 88.6741 148.378 88.6661 148.087C88.6608 147.883 88.8798 147.702 89.179 147.641C89.7802 147.519 90.3867 147.417 90.9808 147.268C91.5723 147.121 92.1532 146.923 92.8012 146.729Z" fill="#4F372B"/>
<path fill-rule="evenodd" clip-rule="evenodd" d="M125.92 151.966C125.892 153.838 125.405 155.352 124.081 156.488C122.404 157.93 119.787 158.42 117.648 157.342C116.735 156.882 116.064 156.177 115.627 155.261C114.957 153.853 114.79 152.373 115.139 150.856C115.485 149.356 116.394 148.269 117.753 147.566C119.152 146.843 120.624 146.56 122.177 146.94C124.141 147.419 125.553 149.021 125.834 151.06C125.884 151.417 125.903 151.779 125.92 151.966ZM123.645 152.98L123.569 152.971C123.569 152.795 123.579 152.618 123.567 152.442C123.503 151.342 123.256 150.294 122.618 149.373C122.014 148.501 121.19 147.986 120.118 147.911C118.919 147.826 117.91 148.497 117.556 149.722C117.025 151.562 117.205 153.355 118.139 155.041C118.546 155.775 119.149 156.317 119.957 156.602C121.54 157.159 122.943 156.438 123.356 154.817C123.507 154.219 123.552 153.593 123.645 152.98Z" fill="#4F382B"/>
<path fill-rule="evenodd" clip-rule="evenodd" d="M87.0357 152.111C87.003 153.454 86.6861 154.696 85.8563 155.776C84.9673 156.932 83.7455 157.55 82.3559 157.811C80.713 158.118 79.1698 157.839 77.85 156.736C77.2232 156.212 76.7951 155.54 76.5126 154.776C76.0491 153.522 75.9334 152.238 76.2186 150.928C76.5232 149.527 77.3142 148.457 78.5404 147.738C79.9582 146.909 81.4881 146.539 83.1222 146.912C85.2233 147.392 86.4363 148.761 86.8847 150.834C86.9748 151.252 86.9871 151.685 87.0357 152.111ZM84.7351 152.997L84.6742 152.988V152.736C84.6397 151.503 84.3987 150.329 83.6633 149.305C83.1187 148.545 82.3895 148.068 81.4546 147.935C79.9308 147.718 78.935 148.622 78.6048 149.85C78.174 151.454 78.3091 153.038 78.9756 154.559C79.3914 155.508 80.0482 156.246 81.0573 156.605C82.6305 157.164 84.0553 156.424 84.4535 154.809C84.6 154.219 84.6442 153.602 84.7351 152.997Z" fill="#4F372B"/>
<path fill-rule="evenodd" clip-rule="evenodd" d="M123.71 83.6133C124.794 86.7446 125.572 89.9413 125.829 93.2536C126.147 97.364 126.002 101.446 125.135 105.488L125.024 105.812C124.752 105.812 124.475 105.778 124.209 105.82C121.964 106.173 119.722 106.538 117.479 106.902C115.16 107.278 112.839 107.639 110.524 108.04C109.704 108.181 108.689 108.012 108.357 109.146L108.199 109.2L108.311 102.422L108.197 86.0666L109.277 85.8812C111.044 85.5925 112.81 85.2986 114.58 85.017C116.689 84.6824 118.801 84.3557 120.913 84.0291C121.845 83.8861 122.778 83.7528 123.71 83.6133Z" fill="#439934"/>
<path fill-rule="evenodd" clip-rule="evenodd" d="M105.968 128.96C104.829 127.98 103.649 127.044 102.557 126.013C96.6794 120.469 92.3792 113.942 90.2613 106.073C89.6778 103.909 89.2894 101.708 89.164 99.4709C89.0757 97.9048 88.9495 96.3254 89.0607 94.7673C89.3547 90.6242 89.9541 86.5209 91.1689 82.5297L91.236 82.437C91.3543 82.5942 91.5238 82.7336 91.5838 82.9111C92.7703 86.4035 93.9471 89.8994 95.1186 93.398C98.799 104.39 102.475 115.384 106.162 126.375C106.234 126.589 106.42 126.765 106.555 126.958L105.968 128.96Z" fill="#45A538"/>
<path fill-rule="evenodd" clip-rule="evenodd" d="M123.71 83.613C122.777 83.7516 121.844 83.8858 120.913 84.0288C118.801 84.3555 116.689 84.6821 114.579 85.0167C112.811 85.2974 111.045 85.5914 109.277 85.881L108.197 86.0663L108.188 85.3619C108.152 84.7827 108.092 84.2036 108.084 83.6245L107.963 72.5417C107.934 70.2296 107.892 67.9175 107.845 65.6063C107.822 64.1698 107.78 62.7336 107.721 61.2982C107.686 60.5275 107.561 59.7603 107.512 58.9896C107.482 58.5464 107.521 58.0997 107.531 57.6548C108.082 58.7221 108.621 59.7974 109.187 60.8567C110.081 62.5314 111.507 63.7656 112.792 65.1119C117.864 70.4361 121.465 76.6229 123.71 83.613Z" fill="#46A037"/>
<path fill-rule="evenodd" clip-rule="evenodd" d="M108.199 109.2L108.358 109.146C108.689 108.012 109.705 108.181 110.525 108.04C112.839 107.639 115.16 107.278 117.48 106.902C119.723 106.539 121.965 106.173 124.21 105.819C124.476 105.778 124.753 105.812 125.025 105.811C124.606 107.309 124.275 108.839 123.743 110.294C123.138 111.945 122.407 113.557 121.631 115.137C120.469 117.494 119.031 119.704 117.347 121.721C116.053 123.277 114.61 124.717 113.165 126.137C112.365 126.922 111.424 127.562 110.547 128.268L110.319 128.113L109.501 127.414L108.654 125.556C108.076 123.39 107.76 121.163 107.714 118.921L107.73 118.543L107.845 116.907C107.883 116.348 107.935 115.79 107.958 115.231C108.043 113.222 108.119 111.211 108.199 109.2Z" fill="#409433"/>
<path fill-rule="evenodd" clip-rule="evenodd" d="M108.199 109.199C108.12 111.21 108.044 113.222 107.958 115.233C107.934 115.793 107.884 116.351 107.845 116.909L107.33 117.104C106.184 113.731 105.037 110.393 103.916 107.047C102.061 101.511 100.229 95.9669 98.3769 90.429C96.8813 85.9597 95.3752 81.4938 93.8587 77.0315C93.7872 76.8231 93.5841 76.6589 93.4429 76.4744L96.7446 70.4033C96.8585 70.6002 97.0077 70.7847 97.0792 70.9966C98.6064 75.5166 100.131 80.0375 101.642 84.5627C103.609 90.4511 105.563 96.3421 107.528 102.231C107.607 102.466 107.736 102.683 107.859 102.947L108.311 102.421L108.199 109.199Z" fill="#4FAA41"/>
<path fill-rule="evenodd" clip-rule="evenodd" d="M93.4419 76.4746C93.584 76.6591 93.7871 76.8233 93.8577 77.0317C95.3744 81.4939 96.8804 85.9598 98.3759 90.4292C100.228 95.9671 102.06 101.511 103.915 107.047C105.036 110.393 106.183 113.73 107.329 117.104L107.844 116.909L107.728 118.546L107.623 118.923C107.444 120.714 107.293 122.509 107.074 124.297C106.965 125.193 106.731 126.072 106.553 126.958C106.42 126.765 106.233 126.589 106.161 126.375C102.473 115.385 98.7979 104.39 95.1175 93.3981C93.9465 89.9 92.7682 86.4044 91.5827 82.9112C91.5227 82.7337 91.3532 82.5943 91.2349 82.4371L93.4419 76.4746Z" fill="#4AA73C"/>
<path fill-rule="evenodd" clip-rule="evenodd" d="M108.31 102.422L107.858 102.948C107.735 102.684 107.606 102.467 107.527 102.232C105.562 96.3425 103.608 90.4515 101.641 84.5632C100.128 80.0384 98.6073 75.5164 97.0782 70.997C97.0067 70.7851 96.8575 70.6006 96.7437 70.4037L100.827 65.0327C100.956 65.204 101.139 65.3567 101.205 65.55C102.339 68.8694 103.462 72.1914 104.579 75.5161C105.623 78.6218 106.651 81.7311 107.706 84.8316C107.777 85.039 108.023 85.1856 108.188 85.3621L108.196 86.0666L108.31 102.422Z" fill="#57AE47"/>
<path fill-rule="evenodd" clip-rule="evenodd" d="M108.188 85.3619C108.022 85.1863 107.777 85.0397 107.706 84.8314C106.651 81.7309 105.623 78.6217 104.579 75.5159C103.463 72.1912 102.338 68.8692 101.205 65.5499C101.139 65.3565 100.956 65.2038 100.827 65.0325C102.154 63.7322 103.441 62.385 104.822 61.1446C106.05 60.0429 107.037 58.8617 107.083 57.1199L107.18 56.7729L107.53 57.654C107.521 58.0989 107.481 58.5456 107.51 58.9888C107.561 59.7595 107.685 60.5267 107.72 61.2974C107.784 62.7319 107.815 64.1692 107.844 65.6055C107.891 67.9167 107.933 70.2288 107.962 72.5409L108.082 83.6237C108.091 84.2037 108.152 84.7828 108.188 85.3619Z" fill="#60B24F"/>
<path fill-rule="evenodd" clip-rule="evenodd" d="M106.554 126.957C106.732 126.071 106.966 125.192 107.075 124.296C107.294 122.509 107.445 120.713 107.624 118.922L107.669 118.915L107.713 118.923C107.76 121.164 108.075 123.392 108.654 125.558C108.535 125.715 108.368 125.854 108.304 126.031C107.814 127.413 107.352 128.807 106.859 130.189C106.792 130.377 106.603 130.525 106.471 130.69L105.967 128.96L106.554 126.957Z" fill="#A9AA88"/>
<path fill-rule="evenodd" clip-rule="evenodd" d="M106.472 130.691C106.603 130.525 106.792 130.378 106.859 130.189C107.352 128.808 107.814 127.414 108.304 126.031C108.367 125.855 108.535 125.716 108.654 125.559L109.501 127.417C109.334 127.653 109.102 127.868 109.01 128.132L107.389 132.892C107.322 133.083 107.095 133.217 106.941 133.379L106.472 130.691Z" fill="#B6B598"/>
<path fill-rule="evenodd" clip-rule="evenodd" d="M106.941 133.378C107.094 133.216 107.322 133.082 107.389 132.891L109.01 128.131C109.102 127.867 109.334 127.652 109.501 127.416L110.32 128.114C109.924 128.505 109.705 128.957 109.837 129.528L109.588 130.343C109.475 130.482 109.311 130.604 109.255 130.764C108.689 132.385 108.15 134.015 107.58 135.635C107.507 135.839 107.307 136.001 107.167 136.183L106.941 133.378Z" fill="#C2C1A7"/>
<path fill-rule="evenodd" clip-rule="evenodd" d="M107.165 136.182C107.307 136 107.507 135.839 107.579 135.634C108.149 134.014 108.689 132.384 109.254 130.763C109.31 130.604 109.474 130.483 109.587 130.342L109.244 134.082C109.152 134.188 109.019 134.281 108.975 134.403L107.833 137.677C107.753 137.9 107.599 138.1 107.479 138.309C107.372 138.169 107.181 138.034 107.173 137.889C107.139 137.323 107.163 136.752 107.165 136.182Z" fill="#CECDB7"/>
<path fill-rule="evenodd" clip-rule="evenodd" d="M107.479 138.309C107.6 138.1 107.753 137.901 107.833 137.677L108.976 134.404C109.02 134.28 109.153 134.188 109.244 134.083L109.253 136.537L108.431 138.644L107.479 138.309Z" fill="#DBDAC7"/>
<path fill-rule="evenodd" clip-rule="evenodd" d="M108.431 138.644L109.253 136.537L109.423 139.03L108.431 138.644Z" fill="#EBE9DC"/>
<path fill-rule="evenodd" clip-rule="evenodd" d="M109.836 129.528C109.705 128.958 109.924 128.506 110.319 128.114L110.547 128.269L109.836 129.528Z" fill="#CECDB7"/>
<path fill-rule="evenodd" clip-rule="evenodd" d="M107.714 118.924L107.67 118.916L107.625 118.923L107.73 118.546L107.714 118.924Z" fill="#4FAA41"/>
<g clip-path="url(#clip5_187_30)">
<path d="M93.8093 386.959C91.9575 386.959 90.4516 387.518 89.2972 388.633C88.1431 389.749 87.5575 391.212 87.5575 393.005C87.5575 393.934 87.7028 394.781 87.9892 395.557C88.2759 396.335 88.7219 397.056 89.3214 397.707C89.9208 398.359 91.1208 399.244 92.909 400.369C95.1037 401.733 96.5396 402.839 97.2289 403.703C97.9185 404.567 98.2608 405.471 98.2608 406.415C98.2608 407.677 97.8525 408.686 97.0128 409.443C96.172 410.201 95.0473 410.579 93.6532 410.579C92.1826 410.579 90.9014 410.051 89.8014 409.004C88.7013 407.954 88.1458 406.567 88.1334 404.827H87.4492V411.141H88.1334C88.3424 410.543 88.6313 410.237 89.0094 410.237C89.1913 410.237 89.6176 410.365 90.2813 410.604C91.8964 411.189 93.2226 411.471 94.2651 411.471C96.0615 411.471 97.5951 410.83 98.8727 409.529C100.149 408.228 100.793 406.659 100.793 404.827C100.793 403.407 100.368 402.142 99.533 401.041C98.6982 399.938 97.075 398.655 94.649 397.182C92.5615 395.905 91.2066 394.866 90.5813 394.055C89.955 393.246 89.6333 392.351 89.6333 391.368C89.6333 390.306 90.0169 389.452 90.7733 388.816C91.5296 388.179 92.5208 387.863 93.7612 387.863C95.1567 387.863 96.3202 388.285 97.2408 389.134C98.1606 389.983 98.6925 391.161 98.8488 392.675H99.533V387.204H98.8969C98.819 387.483 98.747 387.661 98.6808 387.741C98.6165 387.821 98.4927 387.863 98.3089 387.863C98.0876 387.863 97.6931 387.769 97.1328 387.582C95.9328 387.171 94.8265 386.959 93.809 386.959M116.164 386.959C113.907 386.959 111.859 387.501 110.008 388.584C108.154 389.665 106.687 391.166 105.604 393.078C104.522 394.99 103.984 397.021 103.984 399.185C103.984 402.092 104.919 404.682 106.804 406.952C108.69 409.221 110.95 410.634 113.572 411.178C114.171 411.495 115.029 412.316 116.152 413.645C117.417 415.144 118.487 416.225 119.367 416.869C120.228 417.5 121.184 417.983 122.199 418.298C123.203 418.609 124.289 418.762 125.463 418.762C126.885 418.762 128.157 418.51 129.279 417.992L129.027 417.357C128.376 417.596 127.682 417.711 126.951 417.711C125.959 417.711 124.956 417.379 123.951 416.71C122.947 416.04 121.692 414.761 120.195 412.875C119.492 411.972 119.006 411.401 118.731 411.178C121.6 410.607 123.959 409.192 125.799 406.927C127.638 404.664 128.559 402.08 128.559 399.185C128.559 395.747 127.357 392.857 124.971 390.501C122.583 388.145 119.647 386.959 116.164 386.959ZM130.119 386.959L130.155 387.704C131.657 387.704 132.499 388.155 132.687 389.06C132.757 389.384 132.789 389.982 132.794 390.843L132.782 407.318C132.77 408.549 132.598 409.334 132.267 409.675C131.935 410.014 131.374 410.226 130.563 410.31L130.527 411.056H145.502L145.886 407.318H145.202C145.006 408.336 144.559 409.066 143.846 409.48C143.131 409.897 141.867 410.103 140.042 410.103H138.626C136.984 410.103 136.034 409.499 135.782 408.283C135.731 408.043 135.713 407.785 135.71 407.502L135.77 390.843C135.77 389.615 135.922 388.791 136.238 388.388C136.557 387.987 137.133 387.762 137.966 387.704L137.93 386.959H130.119ZM116.403 387.863C118.948 387.863 121.026 388.883 122.631 390.941C124.236 392.999 125.031 395.82 125.031 399.392C125.031 402.777 124.224 405.487 122.607 407.526C120.99 409.564 118.838 410.579 116.164 410.579C113.594 410.579 111.511 409.532 109.912 407.428C108.314 405.324 107.524 402.593 107.524 399.233C107.524 395.782 108.324 393.019 109.936 390.953C111.547 388.89 113.704 387.863 116.404 387.863M150.842 391.405C150.476 391.405 150.198 391.531 149.99 391.784C149.777 392.036 149.711 392.341 149.786 392.712C149.858 393.072 150.057 393.387 150.374 393.652C150.689 393.918 151.028 394.056 151.394 394.056C151.747 394.056 152.016 393.918 152.21 393.652C152.403 393.387 152.462 393.072 152.39 392.712C152.315 392.341 152.123 392.036 151.826 391.784C151.525 391.531 151.195 391.405 150.842 391.405M160.717 393.933C160.097 396.363 158.751 397.678 156.686 397.89L156.71 398.586H159.121L159.073 406.818C159.077 408.225 159.119 409.162 159.217 409.639C159.455 410.78 160.187 411.361 161.413 411.361C163.187 411.361 165.047 410.261 166.993 408.063L166.405 407.551C165 408.998 163.758 409.724 162.673 409.724C162.006 409.724 161.593 409.334 161.437 408.564C161.395 408.377 161.377 408.158 161.377 407.904L161.401 398.586H165.085L165.049 397.475H161.413V393.933H160.717ZM174.96 397.035C172.9 397.035 171.224 398.053 169.921 400.076C168.624 402.102 168.223 404.347 168.733 406.818C169.033 408.265 169.63 409.386 170.545 410.176C171.458 410.966 172.616 411.361 174.001 411.361C175.29 411.361 177.085 411.029 177.84 410.359C178.598 409.691 179.295 408.607 179.94 407.123L179.424 406.573C178.396 408.499 176.321 409.468 174.756 409.468C172.605 409.468 171.288 408.266 170.797 405.877C170.731 405.554 170.682 405.228 170.653 404.9C173.212 404.488 175.151 403.758 176.46 402.702C177.768 401.646 179.081 400.526 178.836 399.343C178.69 398.64 178.332 398.088 177.78 397.67C177.222 397.253 175.771 397.035 174.96 397.035ZM152.438 397.121L147.998 398.159V398.965L149.534 398.769C150.278 398.769 150.716 399.112 150.854 399.795C150.9 400.024 150.93 400.345 150.938 400.748L150.89 408.137C150.877 409.159 150.766 409.753 150.542 409.932C150.316 410.111 149.72 410.201 148.754 410.201L148.73 410.897H155.773L155.761 410.2C154.783 410.2 154.148 410.122 153.866 409.968C153.588 409.816 153.396 409.539 153.314 409.114C153.25 408.807 153.222 408.28 153.218 407.551L153.242 397.121H152.438ZM173.833 398.488C174.261 398.488 174.675 398.657 175.092 398.989C175.504 399.32 175.754 399.688 175.836 400.088C176.238 402.053 174.527 403.411 170.677 404.167C170.567 402.735 170.811 401.435 171.433 400.259C172.05 399.085 172.854 398.488 173.833 398.488Z" fill="#003B57"/>
<path d="M83.8641 358.75H45.656C43.095 358.75 41 360.883 41 363.489V406.375C41 408.981 43.095 411.114 45.656 411.114H70.8207C70.5351 398.37 74.8109 373.637 83.8641 358.75Z" fill="#0F80CC"/>
<path d="M82.476 360.132H45.6559C43.8375 360.132 42.3579 361.638 42.3579 363.489V403.246C50.6968 399.989 63.2125 397.178 71.8664 397.306C73.6055 388.051 78.7165 369.914 82.476 360.132Z" fill="url(#paint0_linear_187_30)"/>
<path d="M92.7762 357.346C90.1594 354.971 86.9909 355.925 83.8642 358.75C83.4 359.169 82.9368 359.635 82.4761 360.132C77.1268 365.908 72.1613 376.606 70.6188 384.777C71.2198 386.017 71.6892 387.6 71.9982 388.809C72.0774 389.119 72.1488 389.41 72.2061 389.658C72.3419 390.244 72.4149 390.624 72.4149 390.624C72.4149 390.624 72.3668 390.44 72.17 389.859C72.1326 389.748 72.0907 389.626 72.0413 389.483C72.0156 389.413 71.9881 389.344 71.9588 389.275C71.6099 388.449 70.6448 386.707 70.2199 385.948C69.8832 386.954 69.5654 387.965 69.2668 388.983C70.4931 391.267 71.2405 395.18 71.2405 395.18C71.2405 395.18 71.1756 394.927 70.8674 394.042C70.5938 393.259 69.2312 390.829 68.9084 390.26C68.3562 392.335 68.1368 393.736 68.3348 394.077C68.7189 394.738 69.0846 395.878 69.406 397.139C70.1317 399.979 70.6359 403.438 70.6359 403.438C70.6359 403.438 70.6521 403.667 70.6798 404.02C70.5788 406.405 70.6394 408.878 70.821 411.114C71.0613 414.073 71.5138 416.615 72.0907 417.976L72.4825 417.759C71.6355 415.078 71.2912 411.565 71.4419 407.514C71.6699 401.322 73.07 393.854 75.657 386.07C80.0279 374.32 86.0917 364.893 91.6417 360.391C86.5831 365.041 79.7368 380.091 77.6874 385.664C75.3925 391.906 73.7663 397.763 72.7863 403.374C74.4774 398.113 79.9448 395.852 79.9448 395.852C79.9448 395.852 82.6262 392.486 85.76 387.677C83.8829 388.113 80.8005 388.859 79.768 389.3C78.245 389.951 77.8348 390.173 77.8348 390.173C77.8348 390.173 82.7677 387.115 87.0001 385.73C92.8207 376.4 99.1624 363.144 92.7762 357.346Z" fill="#003B57"/>
</g>
<path d="M400.734 562.211L352.07 514.215C349.269 511.451 344.755 511.482 341.988 514.285L332.022 524.391L344.841 537.034C347.793 536.015 351.19 536.661 353.564 539.003C355.95 541.359 356.639 544.776 355.636 547.752L367.99 559.938C370.951 558.894 374.382 559.531 376.767 561.89C380.105 565.179 380.142 570.548 376.85 573.885C376.068 574.678 375.137 575.31 374.11 575.743C373.084 576.177 371.982 576.404 370.868 576.412C369.754 576.419 368.649 576.208 367.617 575.788C366.584 575.369 365.645 574.75 364.852 573.967C363.66 572.791 362.843 571.289 362.503 569.65C362.163 568.01 362.316 566.307 362.942 564.754L351.422 553.391L351.627 583.505C352.46 583.908 353.222 584.444 353.882 585.092C357.218 588.381 357.255 593.749 353.965 597.091C350.674 600.426 345.303 600.463 341.97 597.174C338.634 593.878 338.597 588.511 341.887 585.175C342.676 584.375 343.615 583.739 344.652 583.306L344.442 552.913C343.399 552.496 342.45 551.873 341.652 551.081C339.125 548.591 338.496 544.912 339.762 541.82L327.124 529.356L294.213 562.722C292.886 564.068 292.147 565.887 292.16 567.778C292.173 569.669 292.937 571.478 294.283 572.806L342.948 620.802C345.75 623.566 350.263 623.535 353.031 620.732L400.804 572.296C402.131 570.949 402.87 569.13 402.857 567.239C402.843 565.348 402.08 563.539 400.734 562.211Z" fill="#F34F29"/>
<path d="M525.5 455.84L487.142 470.051L492.992 522.737L525.5 541.442L558.008 522.737L563.858 470.05L525.5 455.84Z" fill="#DD0031"/>
<path d="M525.5 455.84V465.342V465.299V541.442L558.008 522.737L563.858 470.05L525.5 455.84Z" fill="#C3002F"/>
<path d="M525.5 465.299L501.523 521.153H510.463L515.281 508.654H535.634L540.455 521.154H549.395L525.5 465.299ZM532.503 500.95H518.497L525.5 483.445L532.503 500.95Z" fill="white"/>
<g clip-path="url(#clip6_187_30)">
<path d="M135.28 590.468C146.582 586.332 152.558 574.241 148.62 563.477L141.486 543.978L121.012 551.469C109.71 555.604 103.734 567.696 107.672 578.46C111.61 589.223 123.979 594.603 135.28 590.468Z" fill="#0ACF83"/>
<path d="M93.4029 539.461C89.4647 528.698 95.4409 516.606 106.743 512.471L127.217 504.98L141.485 543.978L121.011 551.469C109.71 555.605 97.3411 550.225 93.4029 539.461Z" fill="#A259FF"/>
<path d="M79.1344 500.463C75.1962 489.7 81.1724 477.608 92.474 473.473L112.948 465.982L127.217 504.98L106.743 512.471C95.4411 516.607 83.0725 511.227 79.1344 500.463Z" fill="#F24E1E"/>
<path d="M112.948 465.982L133.422 458.491C144.724 454.356 157.093 459.736 161.031 470.499C164.969 481.263 158.993 493.354 147.691 497.49L127.217 504.981L112.948 465.982Z" fill="#FF7262"/>
<path d="M175.299 509.497C179.237 520.261 173.261 532.352 161.96 536.488C150.658 540.623 138.289 535.243 134.351 524.48C130.413 513.716 136.389 501.624 147.691 497.489C158.992 493.354 171.361 498.734 175.299 509.497Z" fill="#1ABCFE"/>
</g>
<g clip-path="url(#clip7_187_30)">
<path d="M615.37 608.721C613.591 607.488 609.514 607.026 606.327 607.642C605.956 604.561 604.251 601.866 601.286 599.478L599.582 598.245L598.396 600.017C596.913 602.328 596.172 605.563 596.394 608.644C596.468 609.722 596.839 611.648 597.951 613.342C596.913 613.959 594.764 614.729 591.947 614.729H538.357L538.209 615.345C537.69 618.426 537.69 628.054 543.768 635.448C548.363 641.071 555.183 643.921 564.151 643.921C583.571 643.921 597.951 634.601 604.696 617.733C607.365 617.81 613.072 617.733 615.963 611.956C616.037 611.801 616.185 611.493 616.704 610.338L617 609.722L615.37 608.721ZM581.199 587H573.046V594.702H581.199V587ZM581.199 596.243H573.046V603.945H581.199V596.243ZM571.563 596.243H563.41V603.945H571.563V596.243ZM561.928 596.243H553.774V603.945H561.928V596.243ZM552.292 605.486H544.138V613.188H552.291L552.292 605.486ZM561.928 605.486H553.774V613.188H561.928V605.486ZM571.563 605.486H563.41V613.188H571.563V605.486ZM581.2 605.486H573.046V613.188H581.2V605.486ZM590.835 605.486H582.682V613.188H590.835V605.486Z" fill="#2396ED"/>
</g>
<path d="M223.5 586.25C203.526 586.25 187.25 602.526 187.25 622.5C187.25 642.474 203.526 658.75 223.5 658.75C243.474 658.75 259.75 642.474 259.75 622.5C259.75 602.526 243.474 586.25 223.5 586.25ZM190.911 622.5C190.911 617.788 191.926 613.293 193.739 609.233L209.29 651.826C198.415 646.534 190.911 635.405 190.911 622.5ZM223.5 655.089C220.31 655.089 217.229 654.618 214.293 653.748L224.08 625.327L234.085 652.769C234.158 652.914 234.23 653.095 234.302 653.204C230.931 654.436 227.306 655.089 223.5 655.089ZM227.995 607.203C229.952 607.094 231.729 606.876 231.729 606.876C233.469 606.659 233.288 604.085 231.511 604.194C231.511 604.194 226.219 604.592 222.811 604.592C219.621 604.592 214.22 604.194 214.22 604.194C212.48 604.121 212.263 606.804 214.039 606.912C214.039 606.912 215.706 607.13 217.446 607.239L222.521 621.159L215.38 642.546L203.526 607.203C205.484 607.13 207.26 606.912 207.26 606.912C209 606.695 208.819 604.121 207.043 604.23C207.043 604.23 201.75 604.629 198.342 604.629C197.726 604.629 197.001 604.629 196.24 604.592C202.113 595.747 212.117 589.911 223.5 589.911C231.982 589.911 239.704 593.137 245.504 598.466C245.359 598.466 245.214 598.43 245.069 598.43C241.879 598.43 239.595 601.221 239.595 604.23C239.595 606.913 241.154 609.196 242.785 611.879C244.017 614.054 245.467 616.845 245.467 620.869C245.467 623.66 244.38 626.886 243.002 631.418L239.74 642.292L227.995 607.203ZM252.101 606.876C256.173 614.328 257.174 623.075 254.893 631.254C252.611 639.433 247.226 646.398 239.885 650.666L249.854 621.884C251.703 617.244 252.319 613.51 252.319 610.211C252.319 609.015 252.246 607.891 252.101 606.876Z" fill="#186CAB"/>
<defs>
<linearGradient id="paint0_linear_187_30" x1="2355.65" y1="448.343" x2="2355.65" y2="4431.76" gradientUnits="userSpaceOnUse">
<stop stop-color="#97D9F6"/>
<stop offset="0.92024" stop-color="#0F80CC"/>
<stop offset="1" stop-color="#0F80CC"/>
</linearGradient>
<clipPath id="clip0_187_30">
<rect width="63" height="63" fill="white" transform="translate(549 142)"/>
</clipPath>
<clipPath id="clip1_187_30">
<rect width="57" height="84" fill="white" transform="translate(597 39)"/>
</clipPath>
<clipPath id="clip2_187_30">
<rect width="57" height="84" fill="white" transform="translate(500 39)"/>
</clipPath>
<clipPath id="clip3_187_30">
<rect width="242" height="65" fill="white" transform="translate(220 94)"/>
</clipPath>
<clipPath id="clip4_187_30">
<rect width="98" height="94" fill="white" transform="translate(60 214)"/>
</clipPath>
<clipPath id="clip5_187_30">
<rect width="139" height="63" fill="white" transform="translate(41 356)"/>
</clipPath>
<clipPath id="clip6_187_30">
<rect width="87.2057" height="124.58" fill="white" transform="translate(72 480.964) rotate(-20.0966)"/>
</clipPath>
<clipPath id="clip7_187_30">
<rect width="79" height="57" fill="white" transform="translate(538 587)"/>
</clipPath>
</defs>
</svg>
