<svg width="50" height="50" viewBox="0 0 50 50" fill="none" xmlns="http://www.w3.org/2000/svg">
<path d="M24.9998 4.1665C13.4998 4.1665 4.1665 13.4998 4.1665 24.9998C4.1665 36.4998 13.4998 45.8332 24.9998 45.8332C36.4998 45.8332 45.8332 36.4998 45.8332 24.9998C45.8332 13.4998 36.4998 4.1665 24.9998 4.1665ZM34.6665 18.3332C34.354 21.6248 32.9998 29.6248 32.3123 33.3123C32.0207 34.8748 31.4373 35.3957 30.8957 35.4582C29.6873 35.5623 28.7707 34.6665 27.604 33.8957C25.7707 32.6873 24.729 31.9373 22.9582 30.7707C20.8957 29.4165 22.229 28.6665 23.4165 27.4582C23.729 27.1457 29.0623 22.2915 29.1665 21.854C29.181 21.7877 29.1791 21.7189 29.1609 21.6536C29.1427 21.5882 29.1089 21.5283 29.0623 21.479C28.9373 21.3748 28.7707 21.4165 28.6248 21.4373C28.4373 21.479 25.5207 23.4165 19.8332 27.2498C18.9998 27.8123 18.2498 28.104 17.5832 28.0832C16.8332 28.0623 15.4165 27.6665 14.354 27.3123C13.0415 26.8957 12.0207 26.6665 12.104 25.9373C12.1457 25.5623 12.6665 25.1873 13.6457 24.7915C19.729 22.1457 23.7707 20.3957 25.7915 19.5623C31.5832 17.1457 32.7707 16.729 33.5623 16.729C33.729 16.729 34.1248 16.7707 34.3748 16.979C34.5832 17.1457 34.6457 17.3748 34.6665 17.5415C34.6457 17.6665 34.6873 18.0415 34.6665 18.3332Z" fill="#DDDDDD"/>
</svg>
