<svg width="57" height="52" viewBox="0 0 57 52" fill="none" xmlns="http://www.w3.org/2000/svg">
<path d="M35.5 6V2.25C35.5 1.91848 35.6317 1.60054 35.8661 1.36612C36.1005 1.1317 36.4185 1 36.75 1C37.0815 1 37.3995 1.1317 37.6339 1.36612C37.8683 1.60054 38 1.91848 38 2.25V6C38 6.33152 37.8683 6.64946 37.6339 6.88388C37.3995 7.1183 37.0815 7.25 36.75 7.25C36.4185 7.25 36.1005 7.1183 35.8661 6.88388C35.6317 6.64946 35.5 6.33152 35.5 6ZM36.75 9.75C34.7722 9.75 32.8388 10.3365 31.1943 11.4353C29.5498 12.5341 28.2681 14.0959 27.5112 15.9232C26.7543 17.7504 26.5563 19.7611 26.9421 21.7009C27.328 23.6407 28.2804 25.4225 29.6789 26.8211C31.0775 28.2196 32.8593 29.172 34.7991 29.5579C36.7389 29.9437 38.7496 29.7457 40.5768 28.9888C42.4041 28.2319 43.9659 26.9502 45.0647 25.3057C46.1635 23.6612 46.75 21.7278 46.75 19.75C46.7471 17.0987 45.6926 14.5569 43.8179 12.6821C41.9431 10.8074 39.4013 9.7529 36.75 9.75ZM25.8656 10.6344C26.1002 10.8689 26.4183 11.0007 26.75 11.0007C27.0817 11.0007 27.3998 10.8689 27.6344 10.6344C27.8689 10.3998 28.0007 10.0817 28.0007 9.75C28.0007 9.4183 27.8689 9.10018 27.6344 8.86562L25.1344 6.36562C24.8998 6.13107 24.5817 5.9993 24.25 5.9993C23.9183 5.9993 23.6002 6.13107 23.3656 6.36562C23.1311 6.60018 22.9993 6.9183 22.9993 7.25C22.9993 7.5817 23.1311 7.89982 23.3656 8.13438L25.8656 10.6344ZM25.8656 28.8656L23.3656 31.3656C23.1311 31.6002 22.9993 31.9183 22.9993 32.25C22.9993 32.5817 23.1311 32.8998 23.3656 33.1344C23.6002 33.3689 23.9183 33.5007 24.25 33.5007C24.5817 33.5007 24.8998 33.3689 25.1344 33.1344L27.6344 30.6344C27.7505 30.5182 27.8426 30.3804 27.9055 30.2286C27.9683 30.0769 28.0007 29.9142 28.0007 29.75C28.0007 29.5858 27.9683 29.4231 27.9055 29.2714C27.8426 29.1196 27.7505 28.9818 27.6344 28.8656C27.5182 28.7495 27.3804 28.6574 27.2286 28.5945C27.0769 28.5317 26.9142 28.4993 26.75 28.4993C26.5858 28.4993 26.4231 28.5317 26.2714 28.5945C26.1196 28.6574 25.9818 28.7495 25.8656 28.8656ZM46.75 11C46.9142 11.0001 47.0768 10.9679 47.2286 10.9052C47.3803 10.8424 47.5182 10.7504 47.6344 10.6344L50.1344 8.13438C50.3689 7.89982 50.5007 7.5817 50.5007 7.25C50.5007 6.9183 50.3689 6.60018 50.1344 6.36562C49.8998 6.13107 49.5817 5.9993 49.25 5.9993C48.9183 5.9993 48.6002 6.13107 48.3656 6.36562L45.8656 8.86562C45.6906 9.04044 45.5714 9.26326 45.5231 9.50587C45.4748 9.74847 45.4995 9.99996 45.5942 10.2285C45.6889 10.457 45.8493 10.6523 46.055 10.7896C46.2608 10.927 46.5026 11.0002 46.75 11ZM47.6344 28.8656C47.3998 28.6311 47.0817 28.4993 46.75 28.4993C46.4183 28.4993 46.1002 28.6311 45.8656 28.8656C45.6311 29.1002 45.4993 29.4183 45.4993 29.75C45.4993 30.0817 45.6311 30.3998 45.8656 30.6344L48.3656 33.1344C48.4818 33.2505 48.6196 33.3426 48.7714 33.4055C48.9231 33.4683 49.0858 33.5007 49.25 33.5007C49.4142 33.5007 49.5769 33.4683 49.7286 33.4055C49.8804 33.3426 50.0182 33.2505 50.1344 33.1344C50.2505 33.0182 50.3426 32.8804 50.4055 32.7286C50.4683 32.5769 50.5007 32.4142 50.5007 32.25C50.5007 32.0858 50.4683 31.9231 50.4055 31.7714C50.3426 31.6196 50.2505 31.4818 50.1344 31.3656L47.6344 28.8656ZM24.25 19.75C24.25 19.4185 24.1183 19.1005 23.8839 18.8661C23.6495 18.6317 23.3315 18.5 23 18.5H19.25C18.9185 18.5 18.6005 18.6317 18.3661 18.8661C18.1317 19.1005 18 19.4185 18 19.75C18 20.0815 18.1317 20.3995 18.3661 20.6339C18.6005 20.8683 18.9185 21 19.25 21H23C23.3315 21 23.6495 20.8683 23.8839 20.6339C24.1183 20.3995 24.25 20.0815 24.25 19.75ZM36.75 32.25C36.4185 32.25 36.1005 32.3817 35.8661 32.6161C35.6317 32.8505 35.5 33.1685 35.5 33.5V37.25C35.5 37.5815 35.6317 37.8995 35.8661 38.1339C36.1005 38.3683 36.4185 38.5 36.75 38.5C37.0815 38.5 37.3995 38.3683 37.6339 38.1339C37.8683 37.8995 38 37.5815 38 37.25V33.5C38 33.1685 37.8683 32.8505 37.6339 32.6161C37.3995 32.3817 37.0815 32.25 36.75 32.25ZM54.25 18.5H50.5C50.1685 18.5 49.8505 18.6317 49.6161 18.8661C49.3817 19.1005 49.25 19.4185 49.25 19.75C49.25 20.0815 49.3817 20.3995 49.6161 20.6339C49.8505 20.8683 50.1685 21 50.5 21H54.25C54.5815 21 54.8995 20.8683 55.1339 20.6339C55.3683 20.3995 55.5 20.0815 55.5 19.75C55.5 19.4185 55.3683 19.1005 55.1339 18.8661C54.8995 18.6317 54.5815 18.5 54.25 18.5Z" fill="#FFD233"/>
<path d="M11 43.6668C7.96667 43.6668 5.37533 42.5794 3.226 40.4044C1.07667 38.2295 0.00133333 35.6067 0 32.5359C0 29.7363 0.916667 27.2908 2.75 25.1996C4.58333 23.1083 6.85 21.8771 9.55 21.5061C10.6167 19.5835 12.0753 18.0737 13.926 16.9768C15.7767 15.8799 17.8013 15.3321 20 15.3335C23 15.3335 25.6087 16.3036 27.826 18.2437C30.0433 20.1839 31.3847 22.6037 31.85 25.5031C34.15 25.7055 36.0833 26.6668 37.65 28.3871C39.2167 30.1073 40 32.1648 40 34.5597C40 37.0894 39.1253 39.2401 37.376 41.0116C35.6267 42.7831 33.5013 43.6682 31 43.6668H11Z" fill="#BBBBBB"/>
<path d="M37.9688 36.9688C37.9688 37.7976 37.6395 38.5924 37.0535 39.1785C36.4674 39.7645 35.6726 40.0938 34.8438 40.0938C33.5059 40.0938 32.2119 39.2217 31.7676 38.0215C31.7 37.8283 31.7109 37.6162 31.798 37.431C31.8851 37.2457 32.0415 37.1021 32.2335 37.0309C32.4254 36.9598 32.6376 36.9668 32.8244 37.0505C33.0113 37.1342 33.1578 37.2879 33.2324 37.4785C33.4512 38.0693 34.1602 38.5312 34.8438 38.5312C35.2582 38.5312 35.6556 38.3666 35.9486 38.0736C36.2416 37.7806 36.4062 37.3832 36.4062 36.9688C36.4062 36.5543 36.2416 36.1569 35.9486 35.8639C35.6556 35.5709 35.2582 35.4062 34.8438 35.4062H23.9062C23.699 35.4062 23.5003 35.3239 23.3538 35.1774C23.2073 35.0309 23.125 34.8322 23.125 34.625C23.125 34.4178 23.2073 34.2191 23.3538 34.0726C23.5003 33.9261 23.699 33.8438 23.9062 33.8438H34.8438C35.6726 33.8438 36.4674 34.173 37.0535 34.759C37.6395 35.3451 37.9688 36.1399 37.9688 36.9688ZM31.7188 29.1562C32.5476 29.1562 33.3424 28.827 33.9285 28.241C34.5145 27.6549 34.8438 26.8601 34.8438 26.0312C34.8438 25.2024 34.5145 24.4076 33.9285 23.8215C33.3424 23.2355 32.5476 22.9062 31.7188 22.9062C30.3809 22.9062 29.0869 23.7783 28.6426 24.9785C28.575 25.1717 28.5859 25.3838 28.673 25.569C28.7601 25.7543 28.9165 25.8979 29.1085 25.9691C29.3004 26.0402 29.5126 26.0332 29.6994 25.9495C29.8863 25.8658 30.0328 25.7121 30.1074 25.5215C30.3262 24.9307 31.0352 24.4688 31.7188 24.4688C32.1332 24.4688 32.5306 24.6334 32.8236 24.9264C33.1166 25.2194 33.2812 25.6168 33.2812 26.0312C33.2812 26.4457 33.1166 26.8431 32.8236 27.1361C32.5306 27.4291 32.1332 27.5938 31.7188 27.5938H22.3438C22.1365 27.5938 21.9378 27.6761 21.7913 27.8226C21.6448 27.9691 21.5625 28.1678 21.5625 28.375C21.5625 28.5822 21.6448 28.7809 21.7913 28.9274C21.9378 29.0739 22.1365 29.1562 22.3438 29.1562H31.7188ZM40.3125 26.0312C38.9746 26.0312 37.6807 26.9033 37.2363 28.1035C37.1687 28.2967 37.1796 28.5088 37.2668 28.694C37.3539 28.8793 37.5103 29.0229 37.7022 29.0941C37.8942 29.1652 38.1064 29.1582 38.2932 29.0745C38.48 28.9908 38.6265 28.8371 38.7012 28.6465C38.9199 28.0557 39.6289 27.5938 40.3125 27.5938C40.7269 27.5938 41.1243 27.7584 41.4174 28.0514C41.7104 28.3444 41.875 28.7418 41.875 29.1562C41.875 29.5707 41.7104 29.9681 41.4174 30.2611C41.1243 30.5541 40.7269 30.7188 40.3125 30.7188H23.125C22.9178 30.7188 22.7191 30.8011 22.5726 30.9476C22.4261 31.0941 22.3438 31.2928 22.3438 31.5C22.3438 31.7072 22.4261 31.9059 22.5726 32.0524C22.7191 32.1989 22.9178 32.2812 23.125 32.2812H40.3125C41.1413 32.2812 41.9362 31.952 42.5222 31.366C43.1083 30.7799 43.4375 29.9851 43.4375 29.1562C43.4375 28.3274 43.1083 27.5326 42.5222 26.9465C41.9362 26.3605 41.1413 26.0312 40.3125 26.0312Z" fill="#85B6FF"/>
</svg>
