<svg width="50" height="50" viewBox="0 0 50 50" fill="none" xmlns="http://www.w3.org/2000/svg">
<path d="M39.6877 10.2291C37.7777 8.29981 35.5026 6.7701 32.9952 5.72923C30.4879 4.68837 27.7983 4.15717 25.0835 4.16663C13.7085 4.16663 4.43766 13.4375 4.43766 24.8125C4.43766 28.4583 5.396 32 7.18766 35.125L4.271 45.8333L15.2085 42.9583C18.2293 44.6041 21.6252 45.4791 25.0835 45.4791C36.4585 45.4791 45.7293 36.2083 45.7293 24.8333C45.7293 19.3125 43.5835 14.125 39.6877 10.2291ZM25.0835 41.9791C22.0002 41.9791 18.9793 41.1458 16.3335 39.5833L15.7085 39.2083L9.2085 40.9166L10.9377 34.5833L10.521 33.9375C8.80797 31.202 7.89837 28.04 7.896 24.8125C7.896 15.3541 15.6043 7.64579 25.0627 7.64579C29.646 7.64579 33.9585 9.43746 37.1877 12.6875C38.7866 14.2791 40.0537 16.1722 40.9156 18.2571C41.7774 20.342 42.2169 22.5773 42.2085 24.8333C42.2502 34.2916 34.5418 41.9791 25.0835 41.9791ZM34.5002 29.1458C33.9793 28.8958 31.4377 27.6458 30.9793 27.4583C30.5002 27.2916 30.1668 27.2083 29.8127 27.7083C29.4585 28.2291 28.4793 29.3958 28.1877 29.7291C27.896 30.0833 27.5835 30.125 27.0627 29.8541C26.5418 29.6041 24.8752 29.0416 22.9168 27.2916C21.3752 25.9166 20.3543 24.2291 20.0418 23.7083C19.7502 23.1875 20.0002 22.9166 20.271 22.6458C20.5002 22.4166 20.7918 22.0416 21.0418 21.75C21.2918 21.4583 21.396 21.2291 21.5627 20.8958C21.7293 20.5416 21.646 20.25 21.521 20C21.396 19.75 20.3543 17.2083 19.9377 16.1666C19.521 15.1666 19.0835 15.2916 18.771 15.2708H17.771C17.4168 15.2708 16.8752 15.3958 16.396 15.9166C15.9377 16.4375 14.6043 17.6875 14.6043 20.2291C14.6043 22.7708 16.4585 25.2291 16.7085 25.5625C16.9585 25.9166 20.3543 31.125 25.521 33.3541C26.7502 33.8958 27.7085 34.2083 28.4585 34.4375C29.6877 34.8333 30.8127 34.7708 31.7085 34.6458C32.7085 34.5 34.771 33.3958 35.1877 32.1875C35.6252 30.9791 35.6252 29.9583 35.4793 29.7291C35.3335 29.5 35.021 29.3958 34.5002 29.1458Z" fill="#DDDDDD"/>
</svg>
